<?xml version="1.0" encoding="UTF-8"?>
<svg version="1.1" xmlns="http://www.w3.org/2000/svg" width="634" height="489">
<path d="M0 0 C3.91627663 -0.14522934 7.83186153 -0.23404757 11.75 -0.3125 C13.41675781 -0.3753418 13.41675781 -0.3753418 15.1171875 -0.43945312 C23.36371246 -0.56364778 23.36371246 -0.56364778 26.703125 2.39453125 C27.13109375 3.25433594 27.5590625 4.11414063 28 5 C28.495 5.99 28.495 5.99 29 7 C29.09167789 9.09355019 29.11750933 11.19009177 29.11352539 13.28564453 C29.11367142 13.92967224 29.11381744 14.57369995 29.1139679 15.23724365 C29.1132704 17.36913402 29.10548566 19.50093737 29.09765625 21.6328125 C29.09579149 23.10968986 29.09436786 24.58656784 29.09336853 26.06344604 C29.08954792 29.95312199 29.07972152 33.84276067 29.06866455 37.73242188 C29.05844064 41.70051571 29.05386881 45.66861555 29.04882812 49.63671875 C29.03809885 57.42449616 29.02102789 65.21224286 29 73 C30.98710207 70.0193469 32.51437236 67.06231047 34 63.8125 C35 62 35 62 37 61 C37.13921875 60.24074219 37.2784375 59.48148438 37.421875 58.69921875 C38.09359366 55.5630188 39.13394546 54.1907613 41.25 51.8125 C41.83265625 51.13832031 42.4153125 50.46414062 43.015625 49.76953125 C47.06523161 46.1583663 50.89151746 45.76312894 56.17578125 46.0234375 C57.33271484 46.075 58.48964844 46.1265625 59.68164062 46.1796875 C61.47891602 46.27636719 61.47891602 46.27636719 63.3125 46.375 C64.53001953 46.43171875 65.74753906 46.4884375 67.00195312 46.546875 C70.00192202 46.68805001 73.0010166 46.8394365 76 47 C76 47.66 76 48.32 76 49 C77.485 49.495 77.485 49.495 79 50 C78.29186565 54.95694043 76.54556225 58.45443775 73 62 C72.13492744 63.76474803 71.27072556 65.52992661 70.41015625 67.296875 C68.52075655 70.91866058 66.46238968 74.42694673 64.375 77.9375 C63.97853271 78.61256592 63.58206543 79.28763184 63.17358398 79.9831543 C60.23852213 84.88073893 60.23852213 84.88073893 58 86 C57.21954583 92.1135577 58.95877119 95.12329967 62.4921875 100.08203125 C64.00382327 102.08307484 64.00382327 102.08307484 66 104 C66 104.99 66 105.98 66 107 C67.485 107.495 67.485 107.495 69 108 C70.0109455 109.72839069 71.01679238 111.46079492 71.9609375 113.2265625 C73.31345566 115.53499575 75.05388469 117.17944051 77 119 C78.485 120.98 78.485 120.98 80 123 C80.33 84.06 80.66 45.12 81 5 C81.99 4.67 82.98 4.34 84 4 C85.20882096 1.99983534 85.20882096 1.99983534 86 0 C89.74973906 -0.11622939 93.49901464 -0.1872595 97.25 -0.25 C98.31347656 -0.28351563 99.37695312 -0.31703125 100.47265625 -0.3515625 C101.49746094 -0.36445313 102.52226562 -0.37734375 103.578125 -0.390625 C104.99206543 -0.4220459 104.99206543 -0.4220459 106.43457031 -0.45410156 C109.8731277 0.15455058 110.85973031 1.26338285 113 4 C113.51898193 7.1005249 113.51898193 7.1005249 113.54589844 10.78808594 C113.55623611 11.46166641 113.56657379 12.13524689 113.57722473 12.82923889 C113.60664006 15.04786197 113.60815151 17.2655723 113.609375 19.484375 C113.62435766 21.0256728 113.64108499 22.56695454 113.65948486 24.10821533 C113.7031617 28.15896341 113.72315798 32.20949493 113.73822021 36.26043701 C113.75779027 40.39641121 113.79976033 44.53215149 113.83984375 48.66796875 C113.91514936 56.77858463 113.96543844 64.88910866 114 73 C114.29245605 72.49549316 114.58491211 71.99098633 114.88623047 71.47119141 C116.21261238 69.18724699 117.54374346 66.90610626 118.875 64.625 C119.33519531 63.8309375 119.79539062 63.036875 120.26953125 62.21875 C120.71425781 61.45820313 121.15898437 60.69765625 121.6171875 59.9140625 C122.02565918 59.2123291 122.43413086 58.5105957 122.85498047 57.78759766 C124 56 124 56 126 54 C126.3403125 53.071875 126.3403125 53.071875 126.6875 52.125 C128.75225049 48.78207064 131.35994428 47.22340422 135 46 C139.67432553 45.65658617 144.26621027 45.94135684 148.9375 46.25 C150.19369141 46.31574219 151.44988281 46.38148438 152.74414062 46.44921875 C155.83103567 46.61354016 158.91540068 46.79768947 162 47 C164.0859375 52.67675781 164.0859375 52.67675781 163.3125 55.5859375 C161.98332613 58.03066802 160.57618464 60.33165135 159 62.625 C158.2265625 63.75808594 158.2265625 63.75808594 157.4375 64.9140625 C156.963125 65.60242188 156.48875 66.29078125 156 67 C154.06275038 69.75755536 154.06275038 69.75755536 153.0625 71.9375 C151.91515492 74.16469927 150.50121831 75.99837559 149 78 C148.29848848 79.3153341 147.63474075 80.65117592 147 82 C146.2575 83.36125 146.2575 83.36125 145.5 84.75 C143.77365303 88.49041844 142.89968911 91.98600245 142 96 C142.95712891 96.17015625 142.95712891 96.17015625 143.93359375 96.34375 C144.61550781 96.5603125 145.29742187 96.776875 146 97 C146.70211894 98.65204456 147.36971413 100.31923769 148 102 C148.99 102.33 149.98 102.66 151 103 C153.04296875 105.43359375 153.04296875 105.43359375 155.1875 108.4375 C155.90292969 109.42621094 156.61835938 110.41492188 157.35546875 111.43359375 C159 114 159 114 159 116 C160.62449243 117.70779973 162.29220027 119.37550757 164 121 C164.33 121.33 164.66 121.66 165 122 C165.00142502 121.16141449 165.00285004 120.32282898 165.00431824 119.45883179 C165.02217218 111.54313813 165.06385624 103.62800194 165.13209057 95.71257591 C165.16633363 91.64343315 165.19146628 87.57466474 165.19555664 83.50537109 C165.1998455 79.57575813 165.22835538 75.64698924 165.27343178 71.71763992 C165.28638827 70.22104439 165.29072097 68.72434774 165.28615379 67.22770309 C165.25525206 54.02281118 165.25525206 54.02281118 168.41918945 50.09619141 C173.10274931 46.29210051 176.96440646 46.71566812 182.8125 46.625 C183.71548828 46.58761719 184.61847656 46.55023438 185.54882812 46.51171875 C190.18906703 46.45034895 192.31395559 46.48909769 196.13671875 49.3359375 C198 52 198 52 198 55 C198.01081536 56.90768092 198.02173423 58.81536135 198.0333252 60.72303772 C198.08900437 69.91099412 198.12805365 79.09893322 198.15543652 88.28701687 C198.17111903 93.37379632 198.19241793 98.4604259 198.22631836 103.54711914 C198.25888448 108.46537311 198.27684592 113.38348256 198.28463173 118.30183601 C198.29017677 120.17695459 198.30100482 122.0520652 198.31719017 123.92712212 C198.33893035 126.54851373 198.34196849 129.1693044 198.34057617 131.79077148 C198.351362 132.56649002 198.36214783 133.34220856 198.3732605 134.14143372 C198.3550972 137.29652467 198.19396577 139.62610458 196.72871399 142.45057678 C193.65280626 145.20747173 190.49668719 145.12589466 186.51025391 145.16113281 C185.62898834 145.17074036 184.74772278 145.1803479 183.8397522 145.19024658 C182.4224733 145.1966214 182.4224733 145.1966214 180.9765625 145.203125 C179.50816422 145.21167511 179.50816422 145.21167511 178.01010132 145.22039795 C175.94066444 145.22983567 173.87121262 145.23637705 171.80175781 145.24023438 C168.64361262 145.24994278 165.48611762 145.28097918 162.328125 145.3125 C160.31510802 145.31903024 158.3020864 145.32428063 156.2890625 145.328125 C155.34825836 145.3404718 154.40745422 145.3528186 153.43814087 145.36553955 C148.1983208 145.34782239 144.52194973 144.9542339 140 142 C137.9375 139.6875 137.9375 139.6875 136 137 C135.08827554 135.93325611 134.17150272 134.87080845 133.25 133.8125 C131 131 131 131 131 129 C130.34 129 129.68 129 129 129 C127.96957506 127.3519702 126.97948427 125.67880563 126 124 C123.99299816 121.18732514 121.90078629 118.44015168 119.8125 115.6875 C117.894375 113.150625 115.97625 110.61375 114 108 C113.67 118.89 113.34 129.78 113 141 C112.01 141.33 111.02 141.66 110 142 C109.67 142.66 109.34 143.32 109 144 C107.4292541 145.5707459 105.86492721 145.14277747 103.68310547 145.16113281 C102.7647995 145.17074036 101.84649353 145.1803479 100.90036011 145.19024658 C99.39893967 145.1966214 99.39893967 145.1966214 97.8671875 145.203125 C96.84199005 145.20882507 95.8167926 145.21452515 94.76052856 145.22039795 C92.58320147 145.22986774 90.40585992 145.23638974 88.22851562 145.24023438 C84.90989734 145.24989838 81.59190915 145.2808861 78.2734375 145.3125 C76.15885785 145.31903397 74.04427376 145.32428289 71.9296875 145.328125 C70.94088593 145.3404718 69.95208435 145.3528186 68.93331909 145.36553955 C62.08496015 145.3436102 56.78432756 144.75586765 51.70703125 139.73046875 C51.08183594 138.89128906 50.45664062 138.05210937 49.8125 137.1875 C49.14476562 136.30320312 48.47703125 135.41890625 47.7890625 134.5078125 C46.38830851 132.54431018 45.01344924 130.57672824 43.6875 128.5625 C42.14526321 126.01656706 42.14526321 126.01656706 40.25 124.3125 C39 123 39 123 39 120 C38.34 120 37.68 120 37 120 C35.2734375 117.8125 35.2734375 117.8125 33.375 115 C32.74335938 114.071875 32.11171875 113.14375 31.4609375 112.1875 C30.97882813 111.465625 30.49671875 110.74375 30 110 C29.99589111 110.81678223 29.99178223 111.63356445 29.98754883 112.47509766 C29.95456076 116.19245675 29.88390672 119.90818858 29.8125 123.625 C29.80669922 124.91019531 29.80089844 126.19539063 29.79492188 127.51953125 C29.54627068 138.18390453 29.54627068 138.18390453 26.57421875 141.8359375 C21.69598877 145.93690778 17.22753249 145.28921207 11.0625 145.375 C10.04736328 145.41238281 9.03222656 145.44976562 7.98632812 145.48828125 C5.23465111 145.52106099 2.70578498 145.50635254 0 145 C-2.06640625 142.5390625 -2.06640625 142.5390625 -3 140 C-3.66 139.67 -4.32 139.34 -5 139 C-5 95.11 -5 51.22 -5 6 C-4.34 6 -3.68 6 -3 6 C-3 5.01 -3 4.02 -3 3 C-2.34 3 -1.68 3 -1 3 C-0.67 2.01 -0.34 1.02 0 0 Z M27 7 C27 30.43 27 53.86 27 78 C27.33 78 27.66 78 28 78 C28 54.57 28 31.14 28 7 C27.67 7 27.34 7 27 7 Z M77 50 C78 53 78 53 78 53 Z M142 86 C143 88 143 88 143 88 Z M27 105 C27 115.89 27 126.78 27 138 C27.33 138 27.66 138 28 138 C28 127.11 28 116.22 28 105 C27.67 105 27.34 105 27 105 Z M32 110 C33 112 33 112 33 112 Z " fill="#A41295" transform="translate(292,139)"/>
<path d="M0 0 C2.38388995 1.68616606 3.61269864 3.5620059 4.390625 6.35546875 C5.0877258 11.21085691 5.48285007 15.87080523 2.48828125 19.98046875 C0.07100109 22.90159887 -2.03199183 25.07601539 -5.2109375 27.1953125 C-7.30031136 29.09474328 -8.94314193 30.65972137 -10.2109375 33.1953125 C-11.47904983 35.73153716 -13.08658011 37.33649978 -15.2109375 39.1953125 C-15.8709375 39.1953125 -16.5309375 39.1953125 -17.2109375 39.1953125 C-17.365625 40.154375 -17.365625 40.154375 -17.5234375 41.1328125 C-17.86375 42.15375 -17.86375 42.15375 -18.2109375 43.1953125 C-19.2009375 43.5253125 -20.1909375 43.8553125 -21.2109375 44.1953125 C-21.5821875 45.21625 -21.5821875 45.21625 -21.9609375 46.2578125 C-23.55131901 49.99520904 -25.92198367 52.45701135 -28.65234375 55.42578125 C-30.28150466 57.12345756 -30.28150466 57.12345756 -31.2109375 59.1953125 C-31.8709375 59.1953125 -32.5309375 59.1953125 -33.2109375 59.1953125 C-33.32308594 59.783125 -33.43523437 60.3709375 -33.55078125 60.9765625 C-34.45406944 64.01246601 -36.19249682 65.97119381 -38.15234375 68.4140625 C-39.55152894 70.42306609 -39.55152894 70.42306609 -39.2109375 74.1953125 C-38.5509375 74.1953125 -37.8909375 74.1953125 -37.2109375 74.1953125 C-33.05444035 79.3532455 -30.30081228 84.45778693 -30.8203125 91.1640625 C-31.91668696 96.86520971 -34.93468624 100.44055529 -39.2109375 104.1953125 C-41.2109375 105.3203125 -41.2109375 105.3203125 -43.2109375 106.1953125 C-43.9121875 106.7521875 -44.6134375 107.3090625 -45.3359375 107.8828125 C-49.64605872 109.85047653 -53.64950412 109.18176882 -58.2109375 108.1953125 C-60.51953125 107.14453125 -60.51953125 107.14453125 -62.2109375 106.1953125 C-62.45199219 106.85144531 -62.69304687 107.50757813 -62.94140625 108.18359375 C-64.57124587 112.05007481 -66.53581089 115.69051576 -68.5234375 119.3828125 C-69.33672249 120.90713352 -70.14922717 122.43187113 -70.9609375 123.95703125 C-71.35023438 124.68841309 -71.73953125 125.41979492 -72.140625 126.17333984 C-75.48727215 132.49563266 -78.58544087 138.8680462 -81.31640625 145.48046875 C-82.2109375 147.1953125 -82.2109375 147.1953125 -84.2109375 148.1953125 C-84.58389995 149.85356094 -84.91066633 151.52237314 -85.2109375 153.1953125 C-86.41887954 156.57972669 -87.82861202 159.87876293 -89.2109375 163.1953125 C-89.49453125 163.91074219 -89.778125 164.62617188 -90.0703125 165.36328125 C-91.97547238 170.07757994 -91.97547238 170.07757994 -94.2109375 171.1953125 C-94.55513263 173.19347186 -94.88572043 175.1939767 -95.2109375 177.1953125 C-96.07663285 179.90628746 -97.11024149 182.54629439 -98.1484375 185.1953125 C-98.67941636 186.56991471 -99.20938093 187.9449092 -99.73828125 189.3203125 C-99.99077637 189.97644531 -100.24327148 190.63257813 -100.50341797 191.30859375 C-101.4803534 193.9137549 -102.35315021 196.54886563 -103.2109375 199.1953125 C-104.19068069 202.13454207 -105.23198116 203.76026537 -107.0859375 206.1953125 C-107.59898437 206.8759375 -108.11203125 207.5565625 -108.640625 208.2578125 C-112.94681554 213.57092321 -112.94681554 213.57092321 -117.2109375 214.1953125 C-119.20924039 214.28762541 -121.21050977 214.32531357 -123.2109375 214.3203125 C-124.2421875 214.32289063 -125.2734375 214.32546875 -126.3359375 214.328125 C-132.22733094 214.05596824 -132.22733094 214.05596824 -134.7109375 211.8828125 C-135.2059375 211.3259375 -135.7009375 210.7690625 -136.2109375 210.1953125 C-136.8915625 209.5765625 -137.5721875 208.9578125 -138.2734375 208.3203125 C-140.38220295 206.00747297 -141.18454796 204.12785403 -142.2109375 201.1953125 C-142.53707031 200.60878906 -142.86320312 200.02226562 -143.19921875 199.41796875 C-144.44961619 196.6709566 -144.83362979 194.11537402 -145.2734375 191.1328125 C-145.96609806 186.50171837 -146.5725788 183.15285054 -149.2109375 179.1953125 C-149.84375 177.00390625 -149.84375 177.00390625 -150.3359375 174.6328125 C-150.58730469 173.45525391 -150.58730469 173.45525391 -150.84375 172.25390625 C-151.2109375 170.1953125 -151.2109375 170.1953125 -151.2109375 168.1953125 C-151.6646875 167.7828125 -152.1184375 167.3703125 -152.5859375 166.9453125 C-154.2109375 165.1953125 -154.2109375 165.1953125 -155.078125 162.56640625 C-156.38538663 158.67617596 -158.10051075 155.15707734 -159.9609375 151.5078125 C-160.31510742 150.80809326 -160.66927734 150.10837402 -161.03417969 149.38745117 C-166.76015117 137.74514297 -166.76015117 137.74514297 -174.2109375 127.1953125 C-174.87802734 126.05835938 -174.87802734 126.05835938 -175.55859375 124.8984375 C-181.72821329 114.80534833 -189.99741968 106.0820071 -199.9296875 99.73828125 C-204.66866794 96.5329777 -209.03009742 92.96657262 -212.2109375 88.1953125 C-212.31606828 83.51699296 -211.62860825 78.22476375 -209.2109375 74.1953125 C-205.65182965 71.34802622 -202.75503259 69.61801902 -198.2109375 69.1953125 C-197.57542969 69.13214844 -196.93992187 69.06898438 -196.28515625 69.00390625 C-182.45967493 68.24264529 -168.68743301 77.33505171 -158.68359375 86.2109375 C-151.22271861 93.23126572 -145.18935755 101.20869789 -139.34765625 109.58886719 C-137.88629702 111.65410425 -136.33457496 113.64236223 -134.7734375 115.6328125 C-132.43270081 118.71343722 -130.73700871 121.9014627 -129.16796875 125.43359375 C-128.10168828 127.39642025 -126.81278179 128.65391517 -125.2109375 130.1953125 C-124.8809375 130.8553125 -124.5509375 131.5153125 -124.2109375 132.1953125 C-120.9124236 131.47263015 -120.9124236 131.47263015 -119.5234375 128.1328125 C-119.0903125 127.1634375 -118.6571875 126.1940625 -118.2109375 125.1953125 C-117.2209375 125.1953125 -116.2309375 125.1953125 -115.2109375 125.1953125 C-115.41984619 124.62167969 -115.62875488 124.04804688 -115.84399414 123.45703125 C-116.31963337 120.52534673 -115.61137702 119.5183289 -114.08203125 117.0078125 C-113.61522949 116.22019531 -113.14842773 115.43257813 -112.66748047 114.62109375 C-112.18682129 113.82058594 -111.70616211 113.02007812 -111.2109375 112.1953125 C-110.38213005 110.69927482 -109.56033086 109.19932994 -108.74609375 107.6953125 C-101.11059325 93.77649475 -101.11059325 93.77649475 -96.5859375 87.28515625 C-94.32396089 83.84720885 -92.43346583 80.21201918 -90.5078125 76.578125 C-89.2109375 74.1953125 -89.2109375 74.1953125 -87.2109375 71.1953125 C-86.5509375 71.1953125 -85.8909375 71.1953125 -85.2109375 71.1953125 C-85.03437622 70.31129761 -85.03437622 70.31129761 -84.85424805 69.40942383 C-84.18056183 67.09076716 -83.34851554 65.69873997 -81.91796875 63.76953125 C-81.45197266 63.13724609 -80.98597656 62.50496094 -80.50585938 61.85351562 C-80.01666016 61.20318359 -79.52746094 60.55285156 -79.0234375 59.8828125 C-78.55357422 59.24408203 -78.08371094 58.60535156 -77.59960938 57.94726562 C-74.74171094 54.09904495 -71.74183673 50.42135185 -68.59692383 46.80493164 C-66.71060941 44.61425506 -64.93039868 42.34624649 -63.1484375 40.0703125 C-55.65690329 30.6773011 -55.65690329 30.6773011 -51.2109375 29.1953125 C-50.9221875 28.6178125 -50.6334375 28.0403125 -50.3359375 27.4453125 C-47.5891961 21.95182969 -41.85936428 18.0935609 -37.2109375 14.1953125 C-36.2209375 14.6903125 -36.2209375 14.6903125 -35.2109375 15.1953125 C-35.17484375 14.64101562 -35.13875 14.08671875 -35.1015625 13.515625 C-33.74423772 9.97943676 -30.91558749 8.24912442 -27.9609375 6.0703125 C-27.38730469 5.62816406 -26.81367188 5.18601562 -26.22265625 4.73046875 C-18.62317989 -0.99943256 -9.31746948 -3.3911638 0 0 Z M-61.2109375 38.1953125 C-60.2109375 40.1953125 -60.2109375 40.1953125 -60.2109375 40.1953125 Z " fill="#7F18A8" transform="translate(315.2109375,69.8046875)"/>
<path d="M0 0 C0.67675781 -0.00386719 1.35351562 -0.00773438 2.05078125 -0.01171875 C9.37773283 0.00273283 9.37773283 0.00273283 12.5 3.125 C13.015625 3.62 13.53125 4.115 14.0625 4.625 C17.26029174 7.96182617 16.64781673 11.65047059 16.64526367 15.99951172 C16.64862228 16.81267853 16.6519809 17.62584534 16.65544128 18.46365356 C16.6649658 21.16068028 16.66689521 23.857645 16.66796875 26.5546875 C16.6711805 28.42554755 16.67454451 30.29640734 16.67805481 32.16726685 C16.68404998 36.09312523 16.68589433 40.01896158 16.68530273 43.94482422 C16.68520114 48.97773396 16.69884907 54.01050254 16.71607494 59.04337883 C16.72718906 62.90895233 16.72922212 66.77449165 16.72869301 70.6400795 C16.72987418 72.4956422 16.7343036 74.35120576 16.74202538 76.20675278 C16.75181254 78.80183565 16.74895218 81.3966115 16.74291992 83.99169922 C16.74853943 84.75963806 16.75415894 85.5275769 16.75994873 86.31878662 C16.73774576 90.07388743 16.60321792 92.93932922 14.5 96.125 C13.51 96.125 12.52 96.125 11.5 96.125 C11.5 96.785 11.5 97.445 11.5 98.125 C7.85956737 99.33847754 4.47944814 99.3474972 0.6875 99.375 C-0.01181641 99.395625 -0.71113281 99.41625 -1.43164062 99.4375 C-7.00384695 99.47920033 -11.09857356 98.47521579 -15.13999939 94.51997375 C-17.07234953 91.11708714 -16.94260779 87.88207628 -16.93579102 84.07104492 C-16.95090477 82.85808495 -16.95090477 82.85808495 -16.96632385 81.62062073 C-16.99480747 78.94876251 -17.00068086 76.27746933 -17.00390625 73.60546875 C-17.01354824 71.74465198 -17.02364078 69.8838375 -17.03416443 68.02302551 C-17.05212761 64.12166067 -17.05768539 60.22049508 -17.0559082 56.3190918 C-17.05560361 51.3286625 -17.09653261 46.33951639 -17.14822483 41.34939098 C-17.18164539 37.50509315 -17.18766401 33.6611034 -17.18607903 29.81667519 C-17.18961136 27.97750748 -17.20283757 26.13833115 -17.22607613 24.29930687 C-17.25560215 21.72101475 -17.24680105 19.14547884 -17.22875977 16.56713867 C-17.24561829 15.81312775 -17.26247681 15.05911682 -17.27984619 14.28225708 C-17.18669828 9.02187891 -15.61809535 6.31393845 -12.07984829 2.45711231 C-8.53900699 -0.52848974 -4.36730587 -0.02495603 0 0 Z M-15.5 10.125 C-15.5 36.525 -15.5 62.925 -15.5 90.125 C-15.17 90.125 -14.84 90.125 -14.5 90.125 C-14.5 63.725 -14.5 37.325 -14.5 10.125 C-14.83 10.125 -15.16 10.125 -15.5 10.125 Z " fill="#5300D6" transform="translate(263.5,184.875)"/>
<path d="M0 0 C0.77666016 0.00193359 1.55332031 0.00386719 2.35351562 0.00585938 C3.55717773 0.02422852 3.55717773 0.02422852 4.78515625 0.04296875 C5.58373047 0.04361328 6.38230469 0.04425781 7.20507812 0.04492188 C18.80932433 0.13144898 18.80932433 0.13144898 23.6796875 4.36328125 C26.20178417 8.39526188 25.54587091 13.68535987 24.84765625 18.23046875 C24.18765625 18.89046875 23.52765625 19.55046875 22.84765625 20.23046875 C23.67265625 21.22046875 24.49765625 22.21046875 25.34765625 23.23046875 C28.34529512 27.3999891 28.44645294 30.18346806 27.84765625 35.23046875 C27.18765625 35.89046875 26.52765625 36.55046875 25.84765625 37.23046875 C25.57953125 37.86984375 25.31140625 38.50921875 25.03515625 39.16796875 C23.15406511 42.43512705 20.12813075 43.5902315 16.84765625 45.23046875 C13.20762514 45.49719691 9.55887026 45.46200593 5.91015625 45.48046875 C4.89501953 45.50109375 3.87988281 45.52171875 2.83398438 45.54296875 C1.86009766 45.548125 0.88621094 45.55328125 -0.1171875 45.55859375 C-1.01042725 45.56793945 -1.90366699 45.57728516 -2.82397461 45.58691406 C-5.67720804 45.15011834 -6.37761653 44.46022547 -8.15234375 42.23046875 C-8.5131073 40.35115051 -8.5131073 40.35115051 -8.49291992 38.21801758 C-8.49269333 37.41741409 -8.49246674 36.61681061 -8.49223328 35.79194641 C-8.47674942 34.9324791 -8.46126556 34.07301178 -8.4453125 33.1875 C-8.44106766 32.30390305 -8.43682281 31.42030609 -8.43244934 30.50993347 C-8.41565418 27.68730214 -8.37800072 24.86538434 -8.33984375 22.04296875 C-8.32479798 20.1295676 -8.31110939 18.21615526 -8.29882812 16.30273438 C-8.26574794 11.61170416 -8.21396005 6.92120744 -8.15234375 2.23046875 C-5.30259563 0.61671743 -3.26948446 -0.01915493 0 0 Z M2.84765625 9.23046875 C2.84765625 9.56046875 2.84765625 9.89046875 2.84765625 10.23046875 C6.14765625 10.23046875 9.44765625 10.23046875 12.84765625 10.23046875 C12.84765625 9.90046875 12.84765625 9.57046875 12.84765625 9.23046875 C9.54765625 9.23046875 6.24765625 9.23046875 2.84765625 9.23046875 Z M3.84765625 11.23046875 C3.84765625 13.54046875 3.84765625 15.85046875 3.84765625 18.23046875 C6.48765625 18.23046875 9.12765625 18.23046875 11.84765625 18.23046875 C11.84765625 17.57046875 11.84765625 16.91046875 11.84765625 16.23046875 C13.16765625 15.57046875 14.48765625 14.91046875 15.84765625 14.23046875 C14.13936704 12.12413157 13.32617209 11.29245267 10.5859375 10.9375 C9.38517578 10.98970703 9.38517578 10.98970703 8.16015625 11.04296875 C7.35191406 11.07003906 6.54367187 11.09710938 5.7109375 11.125 C5.09605469 11.15980469 4.48117187 11.19460938 3.84765625 11.23046875 Z M3.84765625 26.23046875 C3.84765625 28.87046875 3.84765625 31.51046875 3.84765625 34.23046875 C5.47229467 34.28442353 7.09744166 34.3232407 8.72265625 34.35546875 C9.62757813 34.37867188 10.5325 34.401875 11.46484375 34.42578125 C14.03572619 34.47371711 14.03572619 34.47371711 15.84765625 32.23046875 C15.49410189 29.96772087 14.87221199 28.27958023 13.84765625 26.23046875 C10.54765625 26.23046875 7.24765625 26.23046875 3.84765625 26.23046875 Z " fill="#5A5A5A" transform="translate(365.15234375,304.76953125)"/>
<path d="M0 0 C3.05557148 1.60083994 4.03138581 3.13780058 5.4375 6.25 C5.9325 6.70375 6.4275 7.1575 6.9375 7.625 C9.68379095 10.60014853 10.28942451 14.13943386 10.8125 18.0625 C10.10378435 24.086583 7.8727843 28.7494755 3.6875 33.125 C-2.05722585 36.8811669 -7.58308624 39.24705911 -14.5625 38.25 C-20.35748863 35.70833832 -25.12651135 31.56448764 -28.5625 26.25 C-30.31372847 20.9648554 -30.17482667 14.570678 -28.5625 9.25 C-27.9025 8.92 -27.2425 8.59 -26.5625 8.25 C-26.2325 7.26 -25.9025 6.27 -25.5625 5.25 C-24.9025 5.25 -24.2425 5.25 -23.5625 5.25 C-23.35625 4.651875 -23.15 4.05375 -22.9375 3.4375 C-18.27956505 -3.97285105 -7.09702842 -3.27057958 0 0 Z " fill="#FD9B01" transform="translate(484.5625,140.75)"/>
<path d="M0 0 C1.71316406 0.01353516 1.71316406 0.01353516 3.4609375 0.02734375 C5.02714844 0.04474609 5.02714844 0.04474609 6.625 0.0625 C7.945 0.0625 9.265 0.0625 10.625 0.0625 C16.83906939 1.47085767 19.96541878 3.9390863 23.625 9.0625 C24.181875 9.701875 24.73875 10.34125 25.3125 11 C28.52062249 16.04133534 29.01902712 21.03195517 28.15625 26.796875 C26.65210123 33.21162711 23.63670318 37.55598732 18.69921875 41.8359375 C13.10797544 45.1422471 7.18072754 45.4025119 0.875 45.375 C0.12089844 45.39111328 -0.63320312 45.40722656 -1.41015625 45.42382812 C-6.88373452 45.42868921 -6.88373452 45.42868921 -9.08906555 43.78483582 C-11.37064182 40.72897202 -10.73573184 36.90390086 -10.66796875 33.23828125 C-10.66372391 32.37688034 -10.65947906 31.51547943 -10.65510559 30.62797546 C-10.63831248 27.87666569 -10.60065956 25.12608838 -10.5625 22.375 C-10.54745396 20.5097762 -10.53376541 18.64454093 -10.52148438 16.77929688 C-10.48840693 12.20674902 -10.4366206 7.6347487 -10.375 3.0625 C-9.715 3.0625 -9.055 3.0625 -8.375 3.0625 C-8.375 2.4025 -8.375 1.7425 -8.375 1.0625 C-5.54766613 -0.35116693 -3.14961391 -0.03185003 0 0 Z M1.625 10.0625 C1.625 18.3125 1.625 26.5625 1.625 35.0625 C8.34262316 35.0625 9.67250671 34.92417965 14.3125 30.5 C15.075625 29.695625 15.83875 28.89125 16.625 28.0625 C16.955 27.7325 17.285 27.4025 17.625 27.0625 C18.06664959 24.00880857 18.10292428 21.11186471 17.625 18.0625 C15.39523837 15.08130459 15.39523837 15.08130459 12.625 13.0625 C11.965 12.4025 11.305 11.7425 10.625 11.0625 C9.635 11.5575 9.635 11.5575 8.625 12.0625 C8.625 11.4025 8.625 10.7425 8.625 10.0625 C6.315 10.0625 4.005 10.0625 1.625 10.0625 Z " fill="#5D5D5D" transform="translate(182.375,304.9375)"/>
<path d="M0 0 C2.26953125 1.03125 2.26953125 1.03125 4 2 C4.33 1.34 4.66 0.68 5 0 C10.4334519 -0.36223013 10.4334519 -0.36223013 12.67211914 1.0690918 C14.69540445 4.0112068 14.406797 6.54508193 14.43359375 10.08203125 C14.4388356 10.7738298 14.44407745 11.46562836 14.44947815 12.1783905 C14.45589685 13.64178121 14.45456322 15.10522352 14.44604492 16.56860352 C14.43756766 18.79473312 14.46623811 21.01826676 14.49804688 23.24414062 C14.49966002 24.66927007 14.49907919 26.09440402 14.49609375 27.51953125 C14.49887329 29.45469604 14.49887329 29.45469604 14.50170898 31.42895508 C13.81125649 36.34343128 11.60517875 39.30544604 8.24609375 42.8515625 C4.92677878 44.54874267 1.70174616 44.43471416 -1.9375 44.375 C-2.64068359 44.38660156 -3.34386719 44.39820313 -4.06835938 44.41015625 C-8.54981355 44.38495595 -11.45468035 43.77373038 -15 41 C-16.49132528 38.35628701 -17.06470634 36.77647603 -16.8125 33.75 C-16.544375 33.1725 -16.27625 32.595 -16 32 C-15.01 31.67 -14.02 31.34 -13 31 C-13.66708984 30.22076172 -13.66708984 30.22076172 -14.34765625 29.42578125 C-19.02744425 23.65866209 -19.02744425 23.65866209 -18.875 20 C-18.58625 19.34 -18.2975 18.68 -18 18 C-18.66 18 -19.32 18 -20 18 C-20 17.01 -20 16.02 -20 15 C-19.34 15 -18.68 15 -18 15 C-18.33 13.68 -18.66 12.36 -19 11 C-18.34 10.67 -17.68 10.34 -17 10 C-16.855625 9.38640625 -16.71125 8.7728125 -16.5625 8.140625 C-15.68985879 4.8197404 -13.70456789 3.32527605 -11.10546875 1.203125 C-7.52394521 -0.84345988 -3.98422383 -0.76591364 0 0 Z M-7 12 C-7 12.66 -7 13.32 -7 14 C-7.99 14.495 -7.99 14.495 -9 15 C-7.48134786 19.29888613 -7.48134786 19.29888613 -5 23 C-2.54190002 23.2500773 -2.54190002 23.2500773 0 23 C2.39763185 20.60236815 2.34280586 19.66726502 2.625 16.375 C2.69976562 15.55773437 2.77453125 14.74046875 2.8515625 13.8984375 C2.90054688 13.27195312 2.94953125 12.64546875 3 12 C1.081875 11.7215625 1.081875 11.7215625 -0.875 11.4375 C-1.59429687 11.33308594 -2.31359375 11.22867187 -3.0546875 11.12109375 C-5.08140667 10.8315703 -5.08140667 10.8315703 -7 12 Z M3 13 C3 15.31 3 17.62 3 20 C3.33 20 3.66 20 4 20 C4 17.69 4 15.38 4 13 C3.67 13 3.34 13 3 13 Z M3 29 C4 33 4 33 4 33 Z M-6 33 C-6 33.33 -6 33.66 -6 34 C-3.03 34.495 -3.03 34.495 0 35 C0.66 34.01 1.32 33.02 2 32 C-0.7283768 32 -3.31654063 32.53331141 -6 33 Z " fill="#5F5F5F" transform="translate(246,316)"/>
<path d="M0 0 C2.97 0 5.94 0 9 0 C9.33 0.66 9.66 1.32 10 2 C10.99 2 11.98 2 13 2 C13 1.34 13 0.68 13 0 C15.31 0 17.62 0 20 0 C20 0.99 20 1.98 20 3 C20.99 3 21.98 3 23 3 C23 12.24 23 21.48 23 31 C22.34 31 21.68 31 21 31 C20.67 31.99 20.34 32.98 20 34 C13.375 34.125 13.375 34.125 10 33 C8.3603125 33.2475 8.3603125 33.2475 6.6875 33.5 C3.04128869 33.99440153 0.53370143 33.96373675 -3 33 C-4.6875 31.625 -4.6875 31.625 -6 30 C-6.7734375 29.3503125 -6.7734375 29.3503125 -7.5625 28.6875 C-10.8802308 24.79277253 -11.40800487 20.00629732 -11.24609375 15.015625 C-10.62432647 9.92305494 -8.67774548 6.31551984 -4.8125 3.0625 C-3.884375 2.381875 -2.95625 1.70125 -2 1 C-1.67 1.33 -1.34 1.66 -1 2 C-0.67 1.34 -0.34 0.68 0 0 Z M0 13 C0.28241641 14.46015291 0.57626614 15.91809793 0.875 17.375 C1.11863281 18.59316406 1.11863281 18.59316406 1.3671875 19.8359375 C1.86658932 22.18673923 1.86658932 22.18673923 4 24 C6.54713404 23.99077298 6.54713404 23.99077298 9 23 C11.40769537 19.90439167 11.33127155 16.80962278 11 13 C9.12226736 10.69253586 9.12226736 10.69253586 6.0625 10.75 C2.82717213 10.76482246 2.82717213 10.76482246 0 13 Z M-1 15 C0 19 0 19 0 19 Z " fill="#5E5E5E" transform="translate(405,316)"/>
<path d="M0 0 C1.19109375 -0.02126953 1.19109375 -0.02126953 2.40625 -0.04296875 C4.5 0.1875 4.5 0.1875 6.5 2.1875 C7.49 2.1875 8.48 2.1875 9.5 2.1875 C9.5 1.5275 9.5 0.8675 9.5 0.1875 C11.81 0.1875 14.12 0.1875 16.5 0.1875 C16.5 1.1775 16.5 2.1675 16.5 3.1875 C17.16 3.5175 17.82 3.8475 18.5 4.1875 C18.55793591 8.62494539 18.59357467 13.06229389 18.625 17.5 C18.64175781 18.76263672 18.65851563 20.02527344 18.67578125 21.32617188 C18.68544922 23.13891602 18.68544922 23.13891602 18.6953125 24.98828125 C18.71102295 26.66144409 18.71102295 26.66144409 18.72705078 28.3684082 C18.5 31.1875 18.5 31.1875 16.5 34.1875 C13 34.5 13 34.5 9.5 34.1875 C8.84 33.5275 8.18 32.8675 7.5 32.1875 C6.51 32.8475 5.52 33.5075 4.5 34.1875 C-0.35532856 34.6650733 -2.54398784 34.70091394 -6.875 32.375 C-9.5 30.1875 -9.5 30.1875 -11.5 27.1875 C-12.3353125 26.1975 -12.3353125 26.1975 -13.1875 25.1875 C-13.620625 24.5275 -14.05375 23.8675 -14.5 23.1875 C-14.005 21.7025 -14.005 21.7025 -13.5 20.1875 C-13.685625 19.445 -13.87125 18.7025 -14.0625 17.9375 C-14.83681154 13.07039888 -13.17452546 9.19928819 -10.5 5.1875 C-9.84 5.1875 -9.18 5.1875 -8.5 5.1875 C-8.066875 4.2284375 -8.066875 4.2284375 -7.625 3.25 C-5.75322161 -0.18159372 -3.63787936 0.02952824 0 0 Z M-2.3125 12.4375 C-3.63926038 14.39272583 -4.19799945 15.84699575 -4.5 18.1875 C-4.17 18.8475 -3.84 19.5075 -3.5 20.1875 C-2.84 20.1875 -2.18 20.1875 -1.5 20.1875 C-1.2525 20.826875 -1.005 21.46625 -0.75 22.125 C0.31562433 24.37491541 0.31562433 24.37491541 2.625 24.9375 C3.24375 25.02 3.8625 25.1025 4.5 25.1875 C6.7773501 22.37240007 6.7773501 22.37240007 6.5 19.1875 C7.16 19.1875 7.82 19.1875 8.5 19.1875 C8.5 17.8675 8.5 16.5475 8.5 15.1875 C7.84 15.1875 7.18 15.1875 6.5 15.1875 C6.17 13.8675 5.84 12.5475 5.5 11.1875 C1.35513216 10.81361118 1.35513216 10.81361118 -2.3125 12.4375 Z " fill="#5E5E5E" transform="translate(314.5,315.8125)"/>
<path d="M0 0 C1.670625 0.061875 1.670625 0.061875 3.375 0.125 C3.375 0.785 3.375 1.445 3.375 2.125 C4.035 2.125 4.695 2.125 5.375 2.125 C5.705 7.735 6.035 13.345 6.375 19.125 C8.025 17.475 9.675 15.825 11.375 14.125 C13.375 12.125 13.375 12.125 16.5 12 C17.44875 12.04125 18.3975 12.0825 19.375 12.125 C20.72074468 18.3643617 20.72074468 18.3643617 19.125 21.875 C17.63661622 23.78863629 16.17061766 25.50039354 14.375 27.125 C15.72429464 30.96163072 17.45251025 33.77672569 20 36.9375 C20.63164062 37.72769531 21.26328125 38.51789063 21.9140625 39.33203125 C22.39617187 39.92371094 22.87828125 40.51539063 23.375 41.125 C21.5 45 21.5 45 20.375 46.125 C18.04202567 46.16592937 15.70794775 46.16741723 13.375 46.125 C13.375 45.465 13.375 44.805 13.375 44.125 C12.776875 43.8775 12.17875 43.63 11.5625 43.375 C9.08852479 41.96129988 7.94129745 40.47444617 6.375 38.125 C6.065625 39.07375 5.75625 40.0225 5.4375 41 C4.375 44.125 4.375 44.125 3.375 46.125 C0 46.3125 0 46.3125 -3.625 46.125 C-5.65702361 43.07696458 -5.8761751 42.47701655 -5.88378906 39.05249023 C-5.89009338 38.23832138 -5.89639771 37.42415253 -5.90289307 36.58531189 C-5.89682037 35.27271141 -5.89682037 35.27271141 -5.890625 33.93359375 C-5.89253845 33.0325441 -5.8944519 32.13149445 -5.89642334 31.20314026 C-5.89778397 29.29924236 -5.89409606 27.39533514 -5.88574219 25.49145508 C-5.87502848 22.57026451 -5.885648 19.64968719 -5.8984375 16.72851562 C-5.89711613 14.88020697 -5.8945542 13.0318987 -5.890625 11.18359375 C-5.89669769 9.86795692 -5.89669769 9.86795692 -5.90289307 8.52574158 C-5.83818435 0.2013167 -5.83818435 0.2013167 0 0 Z " fill="#5F5F5F" transform="translate(468.625,303.875)"/>
<path d="M0 0 C1.98 0 3.96 0 6 0 C6 0.66 6 1.32 6 2 C7.03125 1.67 8.0625 1.34 9.125 1 C12.54370337 0.0488285 15.43296543 -0.46526538 19 0 C23.54030217 2.63971056 25.56732234 6.05609242 27 11 C27.4105913 14.42765113 27.42037547 17.80146424 27.375 21.25 C27.38660156 22.1471875 27.39820313 23.044375 27.41015625 23.96875 C27.40628906 24.82984375 27.40242188 25.6909375 27.3984375 26.578125 C27.39505371 27.35575195 27.39166992 28.13337891 27.38818359 28.93457031 C26.89929182 31.53584355 26.10199977 32.42828446 24 34 C19.92205575 34.42478586 18.46923881 34.31282587 15 32 C14.56762695 29.93701172 14.56762695 29.93701172 14.48828125 27.4296875 C14.43510742 26.08583984 14.43510742 26.08583984 14.38085938 24.71484375 C14.35830078 23.77769531 14.33574219 22.84054687 14.3125 21.875 C14.27833984 20.93011719 14.24417969 19.98523438 14.20898438 19.01171875 C14.12635888 16.67459747 14.05726012 14.33785809 14 12 C12.35 12.33 10.7 12.66 9 13 C9.03480469 14.26457031 9.06960938 15.52914063 9.10546875 16.83203125 C9.13360677 18.49217423 9.16090691 20.15233156 9.1875 21.8125 C9.21263672 22.64587891 9.23777344 23.47925781 9.26367188 24.33789062 C9.27817383 25.54155273 9.27817383 25.54155273 9.29296875 26.76953125 C9.31653442 27.87711792 9.31653442 27.87711792 9.34057617 29.00708008 C8.89809776 31.59629245 8.09537452 32.45210623 6 34 C2.4375 34.375 2.4375 34.375 -1 34 C-3.39112209 30.41331687 -3.23381027 28.83603431 -3.1953125 24.58203125 C-3.18886719 23.32841797 -3.18242187 22.07480469 -3.17578125 20.78320312 C-3.15902344 19.47287109 -3.14226562 18.16253906 -3.125 16.8125 C-3.11496639 15.47722013 -3.1058412 14.14193311 -3.09765625 12.80664062 C-3.07405292 9.53757985 -3.04112594 6.26887972 -3 3 C-2.01 2.67 -1.02 2.34 0 2 C0 1.34 0 0.68 0 0 Z " fill="#5D5D5D" transform="translate(433,316)"/>
<path d="M0 0 C0 0.66 0 1.32 0 2 C0.66 2 1.32 2 2 2 C2 3.32 2 4.64 2 6 C2.99 6 3.98 6 5 6 C5 6.66 5 7.32 5 8 C5.99 8.33 6.98 8.66 8 9 C8.125 11.375 8.125 11.375 8 14 C6 16 6 16 2 17 C2 21.29 2 25.58 2 30 C3.98 30.33 5.96 30.66 8 31 C9 32 9 32 9.25 34.375 C9 37 9 37 7.75390625 38.6328125 C5.00731772 40.77380578 2.67193877 40.52890685 -0.70703125 40.4296875 C-4.56789301 39.706187 -6.32084229 37.8131156 -9 35 C-10.59412284 31.81175432 -10.10174735 28.37103338 -10.0625 24.875 C-10.05798828 24.12089844 -10.05347656 23.36679687 -10.04882812 22.58984375 C-10.03703499 20.72652873 -10.01909942 18.86325445 -10 17 C-10.66 16.67 -11.32 16.34 -12 16 C-14 14 -14 14 -14.25 11.5625 C-14 9 -14 9 -12 6 C-11.34 6 -10.68 6 -10 6 C-10 4.68 -10 3.36 -10 2 C-9.34 2 -8.68 2 -8 2 C-8 1.34 -8 0.68 -8 0 C-5.13822943 -1.43088528 -3.06624227 -0.59991697 0 0 Z " fill="#5D5D5D" transform="translate(291,310)"/>
<path d="M0 0 C5.51294509 -0.36752967 5.51294509 -0.36752967 7.67495728 1.26391602 C10.02056497 4.33715425 9.42499636 8.21978777 9.3984375 11.9375 C9.40274277 13.2522229 9.40274277 13.2522229 9.40713501 14.59350586 C9.40917598 16.44613288 9.40364378 18.29878142 9.39111328 20.15136719 C9.37505984 22.98942179 9.39096055 25.82605227 9.41015625 28.6640625 C9.40817382 30.46354481 9.40433016 32.26302624 9.3984375 34.0625 C9.40754654 35.33758423 9.40754654 35.33758423 9.4168396 36.63842773 C9.34620208 42.54640264 9.34620208 42.54640264 7.67495728 44.73608398 C5.18475982 46.61517696 3.02154282 46.20143619 0 46 C-0.495 44.515 -0.495 44.515 -1 43 C-1.66 43 -2.32 43 -3 43 C-3 29.8 -3 16.6 -3 3 C-2.34 3 -1.68 3 -1 3 C-0.67 2.01 -0.34 1.02 0 0 Z " fill="#606060" transform="translate(339,304)"/>
<path d="M0 0 C3.125 -0.1875 3.125 -0.1875 6 0 C6.33 0.99 6.66 1.98 7 3 C7.99 3.33 8.98 3.66 10 4 C9.43454163 7.95820859 8.19097652 10.6659053 6 14 C6.99 14.33 7.98 14.66 9 15 C9 24.24 9 33.48 9 43 C7.515 43.495 7.515 43.495 6 44 C6 44.66 6 45.32 6 46 C3.125 46.1875 3.125 46.1875 0 46 C-2.40295002 42.39557497 -2.23349519 40.78301098 -2.1953125 36.50390625 C-2.18886719 35.22322266 -2.18242187 33.94253906 -2.17578125 32.62304688 C-2.15909336 31.26952828 -2.14216382 29.91601264 -2.125 28.5625 C-2.11496337 27.21289717 -2.10583871 25.86328722 -2.09765625 24.51367188 C-2.0801881 22.03194663 -2.0586257 19.55024459 -2.03173828 17.06860352 C-2.00736937 14.71250461 -2 12.35622492 -2 10 C-2.66 9.34 -3.32 8.68 -4 8 C-4 5 -4 5 -2 3 C-1.34 2.01 -0.68 1.02 0 0 Z " fill="#626262" transform="translate(266,304)"/>
<path d="M0 0 C1.65 0 3.3 0 5 0 C5 0.66 5 1.32 5 2 C6.32 2.66 7.64 3.32 9 4 C8.50168276 7.68754757 7.89932357 9.60490662 5 12 C5.48750732 12.36480469 5.97501465 12.72960937 6.47729492 13.10546875 C8.66664168 15.82942752 8.37234633 17.85111128 8.36328125 21.3125 C8.36263672 22.55257813 8.36199219 23.79265625 8.36132812 25.0703125 C8.34521484 26.36710937 8.32910156 27.66390625 8.3125 29 C8.31572266 30.29679687 8.31894531 31.59359375 8.32226562 32.9296875 C8.26698067 42.599529 8.26698067 42.599529 6 46 C3 46.3125 3 46.3125 0 46 C-2 44 -2 44 -2.24291992 41.14257812 C-2.23881104 39.95083984 -2.23470215 38.75910156 -2.23046875 37.53125 C-2.22853516 36.23832031 -2.22660156 34.94539063 -2.22460938 33.61328125 C-2.21840576 32.93861816 -2.21220215 32.26395508 -2.20581055 31.56884766 C-2.18757091 29.50801218 -2.18530077 27.44762647 -2.18554688 25.38671875 C-2.14020451 15.28040902 -2.14020451 15.28040902 -1 13 C-1.97515464 9.9995242 -2.7525351 8.2474649 -5 6 C-4.67 5.01 -4.34 4.02 -4 3 C-3.01 3 -2.02 3 -1 3 C-0.67 2.01 -0.34 1.02 0 0 Z " fill="#5E5E5E" transform="translate(216,304)"/>
<path d="M0 0 C3.125 -0.1875 3.125 -0.1875 6 0 C6.33 0.99 6.66 1.98 7 3 C7.99 3.33 8.98 3.66 10 4 C9.6875 6.375 9.6875 6.375 9 9 C5.77208445 11.1519437 4.71599191 11.20086443 1 11 C0.67 12.32 0.34 13.64 0 15 C-0.66 14.67 -1.32 14.34 -2 14 C-2 12.68 -2 11.36 -2 10 C-2.66 9.34 -3.32 8.68 -4 8 C-4 5 -4 5 -2 3 C-1.34 2.01 -0.68 1.02 0 0 Z " fill="#595959" transform="translate(266,304)"/>
<path d="M0 0 C0.33 0 0.66 0 1 0 C1 13.2 1 26.4 1 40 C0.67 40 0.34 40 0 40 C0 26.8 0 13.6 0 0 Z " fill="#545454" transform="translate(462,307)"/>
<path d="M0 0 C0.33 0 0.66 0 1 0 C1 9.24 1 18.48 1 28 C0.67 28 0.34 28 0 28 C0 18.76 0 9.52 0 0 Z " fill="#7B7B7B" transform="translate(263,319)"/>
<path d="M0 0 C0.33 0 0.66 0 1 0 C1 9.24 1 18.48 1 28 C0.67 28 0.34 28 0 28 C0 18.76 0 9.52 0 0 Z " fill="#7B7B7B" transform="translate(212,319)"/>
<path d="M0 0 C0.66 0.33 1.32 0.66 2 1 C-0.31 3.64 -2.62 6.28 -5 9 C-5.66 8.34 -6.32 7.68 -7 7 C-4.69 4.69 -2.38 2.38 0 0 Z " fill="#FA6311" transform="translate(261,100)"/>
<path d="M0 0 C0 3 0 3 0 3 Z M-2 2 C-1.34 2.66 -0.68 3.32 0 4 C-1.28062485 5.7074998 -2.61767557 7.37373596 -4 9 C-4.66 9 -5.32 9 -6 9 C-4.92598892 6.08482708 -4.22189824 4.22189824 -2 2 Z " fill="#EC3249" transform="translate(244,120)"/>
<path d="M0 0 C5.94 0 11.88 0 18 0 C18 0.33 18 0.66 18 1 C12.06 1 6.12 1 0 1 C0 0.67 0 0.34 0 0 Z " fill="#FF8700" transform="translate(381,138)"/>
<path d="M0 0 C5.94 0 11.88 0 18 0 C18 0.33 18 0.66 18 1 C12.06 1 6.12 1 0 1 C0 0.67 0 0.34 0 0 Z " fill="#FF7700" transform="translate(295,138)"/>
<path d="M0 0 C1 4 1 4 1 4 Z " fill="#454545" transform="translate(198,328)"/>
<path d="M0 0 C1 4 1 4 1 4 Z " fill="#FF8B00" transform="translate(320,79)"/>
<path d="M0 0 C4 1 4 1 4 1 Z " fill="#FFBD00" transform="translate(302,68)"/>
<path d="M0 0 C3 1 3 1 3 1 Z " fill="#5E5E5E" transform="translate(246,360)"/>
<path d="M0 0 C3 1 3 1 3 1 Z " fill="#6D6D6D" transform="translate(238,360)"/>
<path d="" fill="#737373" transform="translate(0,0)"/>
<path d="" fill="#000000" transform="translate(0,0)"/>
<path d="" fill="#FF4B00" transform="translate(0,0)"/>
<path d="" fill="#4800E6" transform="translate(0,0)"/>
<path d="M0 0 C3 1 3 1 3 1 Z " fill="#0000FF" transform="translate(118,138)"/>
<path d="M0 0 C3 1 3 1 3 1 Z " fill="#FF9200" transform="translate(308,68)"/>
<path d="" fill="#6E6E6E" transform="translate(0,0)"/>
<path d="M0 0 C2 1 2 1 2 1 Z " fill="#000000" transform="translate(408,350)"/>
<path d="" fill="#363636" transform="translate(0,0)"/>
<path d="" fill="#6A6A6A" transform="translate(0,0)"/>
<path d="" fill="#7F00FF" transform="translate(0,0)"/>
<path d="" fill="#9F009F" transform="translate(0,0)"/>
<path d="" fill="#0000FF" transform="translate(0,0)"/>
<path d="" fill="#5500FF" transform="translate(0,0)"/>
<path d="" fill="#0000FF" transform="translate(0,0)"/>
<path d="" fill="#FFD400" transform="translate(0,0)"/>
<path d="" fill="#FF0045" transform="translate(0,0)"/>
<path d="" fill="#808080" transform="translate(0,0)"/>
<path d="" fill="#808080" transform="translate(0,0)"/>
<path d="" fill="#555555" transform="translate(0,0)"/>
<path d="" fill="#000000" transform="translate(0,0)"/>
<path d="" fill="#000000" transform="translate(0,0)"/>
<path d="" fill="#808080" transform="translate(0,0)"/>
<path d="" fill="#717171" transform="translate(0,0)"/>
<path d="" fill="#000000" transform="translate(0,0)"/>
<path d="" fill="#808080" transform="translate(0,0)"/>
<path d="" fill="#808080" transform="translate(0,0)"/>
<path d="" fill="#7F7F7F" transform="translate(0,0)"/>
<path d="" fill="#626262" transform="translate(0,0)"/>
<path d="" fill="#0000FF" transform="translate(0,0)"/>
<path d="" fill="#0000FF" transform="translate(0,0)"/>
<path d="" fill="#0000FF" transform="translate(0,0)"/>
<path d="" fill="#0000FF" transform="translate(0,0)"/>
<path d="" fill="#FF00FF" transform="translate(0,0)"/>
<path d="" fill="#5500AA" transform="translate(0,0)"/>
<path d="" fill="#840084" transform="translate(0,0)"/>
<path d="" fill="#AA00AA" transform="translate(0,0)"/>
<path d="" fill="#AA00AA" transform="translate(0,0)"/>
<path d="" fill="#5500FF" transform="translate(0,0)"/>
<path d="" fill="#FF0055" transform="translate(0,0)"/>
<path d="" fill="#FF0055" transform="translate(0,0)"/>
<path d="" fill="#B100B1" transform="translate(0,0)"/>
<path d="" fill="#AA00AA" transform="translate(0,0)"/>
<path d="" fill="#AA00AA" transform="translate(0,0)"/>
<path d="" fill="#FF4E4E" transform="translate(0,0)"/>
<path d="" fill="#5500AA" transform="translate(0,0)"/>
<path d="" fill="#FF8000" transform="translate(0,0)"/>
<path d="" fill="#B900B9" transform="translate(0,0)"/>
<path d="" fill="#FF8200" transform="translate(0,0)"/>
<path d="" fill="#FF0000" transform="translate(0,0)"/>
<path d="" fill="#FFFF00" transform="translate(0,0)"/>
</svg>
