<?xml version="1.0" encoding="UTF-8"?>
<svg version="1.1" xmlns="http://www.w3.org/2000/svg" width="1484" height="579">
<path d="M0 0 C1.40174973 -0.01029488 1.40174973 -0.01029488 2.83181763 -0.02079773 C5.91187909 -0.03904639 8.99142939 -0.03522607 12.0715332 -0.02954102 C14.23322208 -0.03410831 16.3949095 -0.0394155 18.55659485 -0.04542542 C23.09166346 -0.05435625 27.62655605 -0.05193898 32.16162109 -0.04199219 C37.91827511 -0.03058548 43.67430808 -0.05058606 49.43088055 -0.07990932 C53.90189871 -0.09844995 58.37277352 -0.0979423 62.84382057 -0.0922718 C64.96248041 -0.09212032 67.08115108 -0.09801895 69.19977379 -0.11056328 C91.14046861 -0.22204363 114.03427991 1.51999258 130.99731445 17.02905273 C141.00295659 27.97957845 144.83781857 41.19857331 144.74731445 55.77905273 C144.743125 56.70226318 144.73893555 57.62547363 144.73461914 58.57666016 C144.6243188 65.23046933 143.96775591 71.19283978 141.43481445 77.40405273 C141.17958008 78.08983398 140.9243457 78.77561523 140.66137695 79.48217773 C136.70035855 88.71244079 129.10400156 95.67540522 120.43481445 100.40405273 C121.35262695 100.96092773 122.27043945 101.51780273 123.21606445 102.09155273 C136.06795804 110.01644908 145.93614867 118.52272579 150.05932617 133.70336914 C154.11877396 152.11030321 152.18070871 171.9982513 143.1965332 188.65405273 C133.55465165 203.70479467 118.80364183 212.44657994 101.63986206 216.52639771 C86.11275352 219.90817443 70.29238497 219.67416695 54.48950195 219.59936523 C52.13868328 219.59562547 49.78786303 219.59278306 47.43704224 219.59078979 C41.31174254 219.58322912 35.18654083 219.56364749 29.0612793 219.54138184 C22.78606491 219.52075849 16.51083436 219.51175316 10.2355957 219.50170898 C-2.03137394 219.48039294 -14.29827153 219.44635078 -26.56518555 219.40405273 C-26.63527669 193.33509321 -26.68817429 167.26614782 -26.72062206 141.19711304 C-26.73608879 129.09272104 -26.75717468 116.98838761 -26.79150391 104.8840332 C-26.82141211 94.3334833 -26.84076196 83.7829758 -26.84745103 73.23238468 C-26.85136085 67.64629427 -26.86054563 62.06032519 -26.88237572 56.47427368 C-26.9027632 51.2146721 -26.90901472 45.95524166 -26.90450859 40.69560432 C-26.90533277 38.76711153 -26.91128488 36.83861292 -26.92280197 34.91015434 C-26.93778148 32.27216958 -26.93411932 29.63482654 -26.9259491 26.99682617 C-26.93468762 26.2380483 -26.94342615 25.47927042 -26.95242947 24.69749928 C-26.90153796 18.59636764 -25.60470442 13.25635017 -21.98706055 8.19702148 C-21.4353418 7.6672168 -20.88362305 7.13741211 -20.31518555 6.59155273 C-19.7737793 6.04885742 -19.23237305 5.50616211 -18.67456055 4.94702148 C-12.65547328 0.54417061 -7.23329154 -0.03746452 0 0 Z M17.43481445 39.40405273 C17.43481445 54.25405273 17.43481445 69.10405273 17.43481445 84.40405273 C24.93097141 84.46720289 32.4261483 84.52727911 39.92234039 84.55930328 C43.41416466 84.57505531 46.90576556 84.59605594 50.39746094 84.63037109 C54.41644281 84.66961491 58.43519318 84.68383706 62.4543457 84.69702148 C63.68812454 84.71250534 64.92190338 84.7279892 66.19306946 84.74394226 C75.5889656 84.74574593 86.21833221 84.10507196 93.43481445 77.40405273 C98.12216087 70.72209081 99.50934393 64.45698715 98.43481445 56.40405273 C97.3018908 50.59907223 94.85391757 47.19052873 90.1965332 43.58764648 C84.43837858 39.71908584 78.03046987 39.2762138 71.24584961 39.29052734 C69.44466171 39.29064064 69.44466171 39.29064064 67.60708618 39.29075623 C66.32562714 39.29591751 65.04416809 39.3010788 63.72387695 39.30639648 C62.38723809 39.30826379 61.05059854 39.30968622 59.71395874 39.3106842 C56.21232176 39.31448478 52.7107269 39.32429382 49.20910645 39.33538818 C45.62940043 39.34565542 42.04968734 39.35024812 38.4699707 39.35522461 C31.45821488 39.36538657 24.44657438 39.38496446 17.43481445 39.40405273 Z M17.43481445 122.40405273 C17.43481445 140.88405273 17.43481445 159.36405273 17.43481445 178.40405273 C25.46925588 178.46715044 33.50278779 178.52723349 41.53726196 178.55930328 C45.27958902 178.5750747 49.02170865 178.59611254 52.76391602 178.63037109 C56.3754898 178.66322282 59.98686379 178.68095944 63.59857559 178.68868446 C64.96913925 178.69418209 66.33969331 178.70491622 67.71017075 178.7212429 C79.69743102 178.85823063 90.14404601 177.55717606 99.43481445 169.40405273 C105.53392111 161.62010999 105.27916189 151.8249379 104.43481445 142.40405273 C103.05685849 136.10231781 99.69042715 131.83781838 94.7043457 127.84155273 C84.68321004 121.49425854 71.70788174 122.25624407 60.3059082 122.30639648 C59.21411255 122.30740356 58.12231689 122.30841064 56.99743652 122.30944824 C52.95571834 122.31464307 48.91401524 122.32860407 44.87231445 122.34155273 C35.81793945 122.36217773 26.76356445 122.38280273 17.43481445 122.40405273 Z " fill="#58585A" transform="translate(476.565185546875,177.595947265625)"/>
<path d="M0 0 C-0.39198109 7.33440168 -2.94041365 12.85055264 -6.1875 19.375 C-6.71923828 20.46063232 -7.25097656 21.54626465 -7.79882812 22.66479492 C-26.97912637 61.46257301 -49.28645735 99.4220369 -78 132 C-79.06541016 133.23169922 -79.06541016 133.23169922 -80.15234375 134.48828125 C-103.56166413 161.123467 -132.55541842 185.60364123 -169 190 C-183.11857616 190.90303316 -193.85676008 187.92431908 -204.67382812 178.54931641 C-239.11895572 147.17346135 -256.56120583 98.61975492 -260 53 C-258.77112061 52.91024902 -257.54224121 52.82049805 -256.27612305 52.72802734 C-172.75596898 46.54652934 -84.58574444 32.86672708 -7.41796875 -1.41796875 C-4.32105059 -2.16343047 -2.78520248 -1.4251036 0 0 Z " fill="#FED503" transform="translate(1455,98)"/>
<path d="M0 0 C1.06766098 -0.00788544 1.06766098 -0.00788544 2.15689087 -0.01593018 C4.49512145 -0.0290587 6.83266163 -0.02040655 9.17089844 -0.01025391 C10.8193169 -0.01227937 12.46773448 -0.01519472 14.1161499 -0.01895142 C17.57263717 -0.02336741 21.02889148 -0.01697713 24.48535156 -0.00292969 C28.85874578 0.01400036 33.23158091 0.00442051 37.60495377 -0.01364708 C41.01479061 -0.02464382 44.42450168 -0.02096444 47.83434296 -0.0132637 C49.44305236 -0.0112967 51.05177415 -0.01359394 52.66046906 -0.02070236 C67.5222 -0.07188842 82.87119973 1.07720548 96.96777344 6.13818359 C97.70455322 6.39494873 98.44133301 6.65171387 99.20043945 6.91625977 C119.46425845 14.27265218 133.78035172 28.35709831 142.96777344 47.68896484 C151.36523579 66.93829491 153.76291854 87.44672094 153.78027344 108.26318359 C153.78094818 108.9929541 153.78162292 109.72272461 153.78231812 110.47460938 C153.76496292 122.3267496 153.15387113 133.79756014 150.53027344 145.38818359 C150.37461914 146.10248535 150.21896484 146.81678711 150.05859375 147.55273438 C144.77507273 170.79073552 131.46291339 191.78079547 111.39575195 204.9128418 C87.74112374 219.65790058 60.141511 219.5764696 33.14746094 219.48583984 C31.46924889 219.48396746 29.79103628 219.48254745 28.11282349 219.48155212 C23.76306565 219.47779142 19.4133429 219.46801888 15.06359863 219.45684814 C10.59806798 219.44649276 6.13253147 219.44202471 1.66699219 219.43701172 C-7.04526324 219.42638861 -15.7574905 219.40939307 -24.46972656 219.38818359 C-24.53981771 193.31922407 -24.5927153 167.25027868 -24.62516308 141.1812439 C-24.6406298 129.0768519 -24.6617157 116.97251847 -24.69604492 104.86816406 C-24.72595312 94.31761416 -24.74530298 83.76710666 -24.75199205 73.21651554 C-24.75590187 67.63042513 -24.76508664 62.04445605 -24.78691673 56.45840454 C-24.80730422 51.19880296 -24.81355573 45.93937252 -24.80904961 40.67973518 C-24.80987379 38.75124239 -24.81582589 36.82274378 -24.82734299 34.8942852 C-24.8423225 32.25630044 -24.83866034 29.6189574 -24.83049011 26.98095703 C-24.83922864 26.22217916 -24.84796716 25.46340128 -24.85697049 24.68163013 C-24.80607898 18.5804985 -23.50924543 13.24048102 -19.89160156 8.18115234 C-19.33988281 7.65134766 -18.78816406 7.12154297 -18.21972656 6.57568359 C-17.67832031 6.03298828 -17.13691406 5.49029297 -16.57910156 4.93115234 C-11.2647242 1.04378371 -6.50825025 0.0121616 0 0 Z M20.53027344 39.38818359 C20.53027344 85.25818359 20.53027344 131.12818359 20.53027344 178.38818359 C58.65035106 180.4144902 58.65035106 180.4144902 91.78027344 164.88818359 C105.6093097 150.03687771 108.20718727 126.85800834 107.71777344 107.40380859 C106.29018963 84.44350238 103.59697333 63.62218007 85.47558594 47.56787109 C67.73719805 34.24734585 39.56749962 39.38818359 20.53027344 39.38818359 Z " fill="#DA2128" transform="translate(275.4697265625,177.61181640625)"/>
<path d="M0 0 C0 26.73 0 53.46 0 81 C28.71 81 57.42 81 87 81 C87 54.27 87 27.54 87 0 C102.18 0 117.36 0 133 0 C133 72.27 133 144.54 133 219 C117.82 219 102.64 219 87 219 C87 186.99 87 154.98 87 122 C58.29 122 29.58 122 0 122 C0 154.01 0 186.02 0 219 C-14.85 219 -29.7 219 -45 219 C-45.1129262 192.83517247 -45.2050071 166.67054266 -45.25906086 140.50553322 C-45.28482755 128.3563018 -45.31994899 116.2072327 -45.37719727 104.05810547 C-45.42707892 93.46724982 -45.45930217 82.87651175 -45.47044247 72.28554189 C-45.47695309 66.67917217 -45.49222338 61.07313877 -45.52865028 55.46687698 C-45.56268472 50.18584933 -45.5730378 44.90529531 -45.56553841 39.6241684 C-45.56690961 37.69004871 -45.57679745 35.75591255 -45.59602737 33.82188797 C-45.77766142 14.60548403 -45.77766142 14.60548403 -40 7 C-37.6484375 4.74609375 -37.6484375 4.74609375 -35.375 3.4375 C-34.24191406 2.75494141 -34.24191406 2.75494141 -33.0859375 2.05859375 C-22.40908234 -3.35981027 -14.70314068 0 0 0 Z " fill="#DA2128" transform="translate(97,178)"/>
<path d="M0 0 C28 0 28 0 38 5 C40.25390625 7.28125 40.25390625 7.28125 41.5625 9.5 C42.24505859 10.59828125 42.24505859 10.59828125 42.94140625 11.71875 C45.28360226 16.7661392 45.16526498 21.9903958 45.20532227 27.4621582 C45.21522186 28.3016954 45.22512146 29.1412326 45.23532104 30.00621033 C45.26681598 32.77103897 45.29164585 35.53588478 45.31640625 38.30078125 C45.33698615 40.22178077 45.3579829 42.14277588 45.37937927 44.06376648 C45.43449292 49.11235973 45.48394932 54.16099313 45.53222656 59.20965576 C45.58251987 64.36441609 45.63816503 69.51911835 45.69335938 74.67382812 C45.80080995 84.78250243 45.90228388 94.89122723 46 105 C46.68711563 104.10611069 47.37423126 103.21222137 48.08216858 102.29124451 C48.99235329 101.10748759 49.90254554 99.92373647 50.81274414 98.73999023 C51.49051785 97.85819218 51.49051785 97.85819218 52.18198395 96.95858002 C55.24501213 92.97541199 58.32715699 89.00890321 61.4375 85.0625 C62.36330024 83.8867337 63.28908091 82.71095199 64.21484375 81.53515625 C64.67487793 80.95137207 65.13491211 80.36758789 65.60888672 79.76611328 C67.90874235 76.84628955 70.20417785 73.92299549 72.5 71 C75.29609309 67.44079088 78.09264576 63.88194538 80.890625 60.32421875 C81.36951172 59.71513672 81.84839844 59.10605469 82.34179688 58.47851562 C83.23874189 57.3377409 84.1358587 56.1971012 85.03320312 55.05664062 C85.45021484 54.52619141 85.86722656 53.99574219 86.296875 53.44921875 C86.70939011 52.94307037 87.12190521 52.436922 87.54692078 51.91543579 C89.06158003 49.99256753 89.06158003 49.99256753 90.35591125 47.72531128 C92.68671009 44.09536307 94.45615128 41.45039999 98.71133423 40.20899963 C102.00775398 39.95884073 105.19287022 39.98709154 108.49609375 40.12109375 C109.68477554 40.13382828 110.87345734 40.14656281 112.09815979 40.15968323 C115.88004981 40.20990739 119.6570706 40.32279579 123.4375 40.4375 C126.00709196 40.48266007 128.57675944 40.52372195 131.14648438 40.56054688 C137.43263975 40.65956367 143.71597206 40.80999271 150 41 C147.92182047 44.52690693 145.74998317 47.66747299 143.125 50.8125 C142.32835937 51.77414063 141.53171875 52.73578125 140.7109375 53.7265625 C140.27620117 54.25024414 139.84146484 54.77392578 139.39355469 55.31347656 C136.82537012 58.4215738 134.28980769 61.55620944 131.75 64.6875 C130.635468 66.05993752 129.52088399 67.4323328 128.40625 68.8046875 C127.2708099 70.20310597 126.13539334 71.60154356 125 73 C122.75023322 75.77102282 120.50022463 78.54184897 118.25 81.3125 C117.70520996 81.9835376 117.16041992 82.6545752 116.59912109 83.34594727 C113.53678641 87.11594087 110.4611218 90.87442849 107.375 94.625 C102.14690752 101.00190982 97.07546217 107.50151106 92 114 C95.82395911 121.86407742 99.9119277 129.48215663 104.375 137 C105.61313001 139.1034897 106.85006006 141.20768605 108.0859375 143.3125 C108.7262793 144.40304687 109.36662109 145.49359375 110.02636719 146.6171875 C113.39291763 152.38746496 116.69503348 158.19433183 120 164 C125.09553921 172.94638769 130.2358937 181.86469134 135.4375 190.75 C139.45854363 197.62244228 143.46063393 204.50361586 147.375 211.4375 C147.75068115 212.10040039 148.1263623 212.76330078 148.51342773 213.44628906 C151 217.8772803 151 217.8772803 151 219 C133.18 219 115.36 219 97 219 C95.040625 215.37 93.08125 211.74 91.0625 208 C90.39210693 206.75919678 89.72171387 205.51839355 89.03100586 204.23999023 C85.50142451 197.69278052 82.01043107 191.12778482 78.56640625 184.53515625 C77.44996846 182.40594046 76.33294041 180.27703523 75.21578979 178.14819336 C74.497886 176.77549333 73.78305716 175.40118003 73.07156372 174.02514648 C66.01582423 159.37332255 66.01582423 159.37332255 55 148 C49.95998592 148.23212966 49.95998592 148.23212966 46 151 C45.66706256 153.95441801 45.66706256 153.95441801 45.68115234 157.46923828 C45.66608391 158.46454056 45.66608391 158.46454056 45.65071106 159.47994995 C45.61978012 161.67672852 45.60281688 163.87338469 45.5859375 166.0703125 C45.56723377 167.59204163 45.54766096 169.11376031 45.5272522 170.63546753 C45.47584076 174.64343105 45.43626351 178.65142823 45.39910889 182.6595459 C45.35209748 187.46708699 45.29046124 192.27445991 45.23126221 197.0818634 C45.1429401 204.38784139 45.07325492 211.69378536 45 219 C30.15 219 15.3 219 0 219 C0 146.73 0 74.46 0 0 Z " fill="#58585A" transform="translate(991,178)"/>
<path d="M0 0 C7.53466355 7.02514737 12.06606706 16.61986552 12.95905113 26.86569595 C13.05470257 30.43160739 13.0587461 33.98614622 13.02807617 37.55322266 C13.02722815 38.9142861 13.02770845 40.27535092 13.02940369 41.63641357 C13.03025824 45.30111662 13.01272097 48.96552018 12.99168181 52.63015413 C12.97282412 56.47114288 12.97115745 60.31213982 12.96760559 64.15316772 C12.95831167 71.41317362 12.93373416 78.67304267 12.90355712 85.93298852 C12.8699301 94.20390222 12.85350631 102.47482273 12.83847082 110.74578786 C12.80718196 127.74727083 12.75447357 144.74862091 12.6875 161.75 C8.47929855 161.83742801 4.27133224 161.89053641 0.0625 161.9375 C-1.12730469 161.96263672 -2.31710937 161.98777344 -3.54296875 162.01367188 C-10.7984848 162.07447229 -15.97491702 161.97058284 -21.4296875 156.70703125 C-22.00976562 155.99933594 -22.58984375 155.29164063 -23.1875 154.5625 C-24.08082031 153.48935547 -24.08082031 153.48935547 -24.9921875 152.39453125 C-25.42789063 151.85183594 -25.86359375 151.30914062 -26.3125 150.75 C-27.05113281 151.14832031 -27.78976562 151.54664063 -28.55078125 151.95703125 C-50.3112694 163.32114895 -79.03395215 165.27629391 -102.5 158 C-116.21982429 153.06086326 -126.7994605 146.06626393 -133.3125 132.75 C-139.14005802 116.94703383 -140.03641801 97.59212373 -133.09375 82.015625 C-128.04434849 72.7583889 -120.78742148 67.21280354 -111.5625 62.5 C-110.94391113 62.18272949 -110.32532227 61.86545898 -109.68798828 61.53857422 C-96.68205482 55.25198764 -82.86718259 53.39007284 -68.73901367 51.39550781 C-51.19822418 49.10120945 -51.19822418 49.10120945 -35.3125 41.75 C-33.29778403 38.72792605 -32.97530966 37.83273301 -32.875 34.375 C-32.81505859 33.24964844 -32.81505859 33.24964844 -32.75390625 32.1015625 C-33.61565019 28.47380131 -35.43514389 27.05417761 -38.3125 24.75 C-40.90449727 23.74932849 -43.13725867 23.02924808 -45.8125 22.4375 C-46.51592529 22.27435303 -47.21935059 22.11120605 -47.9440918 21.94311523 C-59.21887647 19.50935114 -71.69270224 19.39681491 -81.8125 25.6875 C-84.3392766 27.56461409 -84.3392766 27.56461409 -85.68928528 29.8505249 C-87.3125 31.75 -87.3125 31.75 -89.38163757 32.23101807 C-90.57077507 32.2176944 -90.57077507 32.2176944 -91.78393555 32.20410156 C-92.68464279 32.20379944 -93.58535004 32.20349731 -94.51335144 32.20318604 C-95.48218765 32.18254089 -96.45102386 32.16189575 -97.44921875 32.140625 C-98.94108452 32.13213531 -98.94108452 32.13213531 -100.46308899 32.12347412 C-103.64254711 32.1010672 -106.820882 32.05086205 -110 32 C-112.15428061 31.97994062 -114.30857887 31.96168887 -116.46289062 31.9453125 C-121.74647758 31.90118852 -127.02940855 31.83423379 -132.3125 31.75 C-132.16357745 30.30702019 -132.01142653 28.86437331 -131.85791016 27.421875 C-131.77352692 26.6184668 -131.68914368 25.81505859 -131.60220337 24.98730469 C-130.16244175 13.86839565 -122.34032324 4.76869527 -114.08203125 -2.265625 C-84.24709834 -23.64241755 -28.85290796 -23.26847416 0 0 Z M-39.07592773 75.62890625 C-47.39404131 78.40356555 -55.65142347 80.53520821 -64.25 82.25 C-77.98735165 84.85255725 -77.98735165 84.85255725 -89.09765625 92.8046875 C-92.85630546 98.52118463 -94.21855433 103.95979971 -93.3125 110.75 C-91.62140224 115.93704426 -89.55900741 120.45196973 -84.75 123.3125 C-74.41040282 127.63633155 -62.67844482 126.72849413 -52.25390625 123.0703125 C-43.50101312 119.14139101 -36.98669014 112.61764413 -33.48999023 103.63769531 C-31.26139659 97.04698532 -30.94501694 91.03819544 -31.125 84.125 C-31.13853516 83.12082031 -31.15207031 82.11664063 -31.16601562 81.08203125 C-31.20093848 78.63743136 -31.24997252 76.19402266 -31.3125 73.75 C-34.09678004 73.75 -36.46015649 74.75458579 -39.07592773 75.62890625 Z " fill="#58585A" transform="translate(786.3125,235.25)"/>
<path d="M0 0 C12.84512066 10.26545875 17.53657169 27.06971253 19.4227581 42.77149963 C19.82062808 47.40153497 19.75433695 52.03782456 19.73852539 56.68164062 C19.73867142 57.81422302 19.73881744 58.94680542 19.7389679 60.1137085 C19.73827437 63.8362422 19.73050825 67.5587251 19.72265625 71.28125 C19.72079008 73.8705645 19.71936712 76.45987936 19.71836853 79.04919434 C19.71494784 85.15465021 19.70707608 91.26008529 19.69701904 97.36553335 C19.68581261 104.32084399 19.68033607 111.27615553 19.67532361 118.23147297 C19.66489215 132.52932498 19.64732103 146.82716185 19.625 161.125 C15.50013789 161.21313808 11.37552261 161.26577078 7.25 161.3125 C6.09371094 161.33763672 4.93742188 161.36277344 3.74609375 161.38867188 C-4.17822016 161.45582708 -12.32540653 161.28550003 -18.8125 156.22265625 C-19.5859375 155.21525391 -19.5859375 155.21525391 -20.375 154.1875 C-20.91125 153.51847656 -21.4475 152.84945312 -22 152.16015625 C-24.34173209 148.69412665 -25.62302525 146.09525404 -25.64001465 141.87019348 C-25.64828781 141.0278717 -25.65656097 140.18554993 -25.66508484 139.31770325 C-25.66410294 138.40179916 -25.66312103 137.48589508 -25.66210938 136.54223633 C-25.66894241 135.57099823 -25.67577545 134.59976013 -25.68281555 133.59909058 C-25.69640245 131.49021023 -25.70545644 129.38129694 -25.71052551 127.27237892 C-25.71881711 123.92997929 -25.73932718 120.58785254 -25.76306152 117.24552917 C-25.81130585 110.14289335 -25.84420297 103.04023007 -25.875 95.9375 C-25.91071507 87.72275523 -25.95277044 79.50814283 -26.01094055 71.29352379 C-26.03093141 68.00936975 -26.03931466 64.72531837 -26.04724121 61.44111633 C-26.06022321 59.41231929 -26.07374491 57.3835256 -26.08789062 55.35473633 C-26.08690872 54.4489534 -26.08592682 53.54317047 -26.08491516 52.60993958 C-26.17047782 43.75266809 -27.21663891 34.92145634 -33.375 28.125 C-36.22743268 26.08532945 -39.17204883 24.5400024 -42.375 23.125 C-43.14457031 22.75890625 -43.91414062 22.3928125 -44.70703125 22.015625 C-52.68173817 19.35349736 -62.71494525 20.27283086 -70.2265625 23.87890625 C-77.09677746 27.86363093 -79.95827302 31.49745092 -82.55823517 39.04662514 C-83.90795083 44.133684 -83.94544845 49.0600496 -83.92089844 54.29760742 C-83.93123611 55.45988861 -83.94157379 56.6221698 -83.95222473 57.81967163 C-83.98148828 61.62341486 -83.98314848 65.42662216 -83.984375 69.23046875 C-83.99936776 71.88278379 -84.01590452 74.5350445 -84.03448486 77.18733215 C-84.07486404 83.43079873 -84.09534268 89.67416135 -84.10845876 95.91773826 C-84.12439055 103.03282362 -84.1628317 110.14773361 -84.20305204 117.26271665 C-84.28520309 131.88342815 -84.3364794 146.50410648 -84.375 161.125 C-99.555 161.125 -114.735 161.125 -130.375 161.125 C-130.42030604 146.37265551 -130.45708129 131.62035483 -130.47862434 116.86795616 C-130.48889707 110.01676298 -130.50287992 103.16561639 -130.52587891 96.31445312 C-130.54809139 89.69437395 -130.55959171 83.07433021 -130.56475449 76.45421219 C-130.56843059 73.93705105 -130.57560875 71.41989235 -130.58646011 68.90275192 C-130.68273684 45.63006904 -130.66620777 21.45619031 -113.86328125 3.32421875 C-83.21886344 -23.76025099 -32.45768993 -22.68349921 0 0 Z " fill="#58585A" transform="translate(950.375,235.875)"/>
<path d="M0 0 C1.82501706 1.82501706 1.17397893 4.72176582 1.2109375 7.17578125 C1.23712158 8.46943604 1.26330566 9.76309082 1.2902832 11.09594727 C1.30354645 11.78439728 1.31680969 12.47284729 1.33047485 13.18215942 C1.84754097 37.92159356 3.16798426 66.158109 21.03515625 85.28125 C25.42155712 89.1182607 30.4722362 92.15741207 36 94 C36 94.66 36 95.32 36 96 C-42.21809252 110.11267858 -42.21809252 110.11267858 -60.4140625 98.453125 C-64.51989391 95.17426316 -67.19571675 92.32837655 -68 87 C-69.58724981 66.90481844 -59.92231042 49.23223456 -47.578125 33.99609375 C-43.17249346 28.87621588 -38.65104369 23.89736064 -34 19 C-33.41992188 18.35546875 -32.83984375 17.7109375 -32.2421875 17.046875 C-28.55447279 13.08119184 -24.3692168 9.91961104 -20 6.75 C-19.12734497 6.11263916 -19.12734497 6.11263916 -18.23706055 5.46240234 C-12.4982696 1.40532315 -7.21220085 -2.06062881 0 0 Z " fill="#FED205" transform="translate(1209,29)"/>
<path d="M0 0 C0.86625 0.495 1.7325 0.99 2.625 1.5 C6.55006235 1.83075929 6.55006235 1.83075929 9.25 0 C14.83735809 -2.48327026 20.18034352 -2.33026069 25.9375 -0.375 C30.06343192 2.50355716 33.00287651 5.63362953 34.625 10.5 C34.70994728 13.15894107 34.74094796 15.79085377 34.72265625 18.44921875 C34.7212413 19.22183548 34.71982635 19.99445221 34.71836853 20.79048157 C34.71277466 23.25619389 34.70022333 25.72181515 34.6875 28.1875 C34.68248421 29.86002473 34.67792144 31.53255088 34.67382812 33.20507812 C34.66280724 37.30342046 34.64554684 41.40169479 34.625 45.5 C31.655 45.5 28.685 45.5 25.625 45.5 C25.595271 44.18394775 25.595271 44.18394775 25.56494141 42.84130859 C25.486524 39.56467423 25.39982117 36.28847139 25.30761719 33.01220703 C25.26949762 31.59822937 25.23461596 30.18416035 25.203125 28.77001953 C25.15710142 26.7291616 25.09917333 24.6889234 25.0390625 22.6484375 C25.0076416 21.42302246 24.9762207 20.19760742 24.94384766 18.93505859 C24.62273921 15.47564375 23.96915787 12.69886881 22.625 9.5 C19.78416359 8.07958179 17.77022722 8.18547728 14.625 8.5 C12.31697284 9.98812945 12.31697284 9.98812945 10.625 12.5 C10.20698231 15.1673866 10.02030042 17.44108981 10.015625 20.109375 C9.99908875 20.83618469 9.98255249 21.56299438 9.96551514 22.31182861 C9.91707639 24.62463869 9.89567511 26.93679157 9.875 29.25 C9.84683659 30.82164757 9.81690863 32.39326459 9.78515625 33.96484375 C9.71131953 37.80984169 9.66172052 41.65447572 9.625 45.5 C6.655 45.5 3.685 45.5 0.625 45.5 C0.60518066 44.61739502 0.58536133 43.73479004 0.56494141 42.82543945 C0.48662134 39.53578043 0.39992145 36.24656036 0.30761719 32.95727539 C0.26944851 31.5364627 0.23457487 30.11555737 0.203125 28.69458008 C0.15720935 26.64631145 0.09926195 24.59867392 0.0390625 22.55078125 C0.0076416 21.32012939 -0.0237793 20.08947754 -0.05615234 18.8215332 C-0.47354536 14.47342295 -1.26799844 11.60700156 -4.375 8.5 C-7.83286015 7.99992206 -7.83286015 7.99992206 -11.375 8.5 C-13.99867604 10.90203698 -14.36601841 12.42764009 -14.80737305 15.98339844 C-14.84858585 17.35836074 -14.87418365 18.7338523 -14.88671875 20.109375 C-14.90466995 20.83618469 -14.92262115 21.56299438 -14.94111633 22.31182861 C-14.99513241 24.62449407 -15.0290856 26.93695421 -15.0625 29.25 C-15.09568093 30.8216431 -15.13017132 32.39325914 -15.16601562 33.96484375 C-15.25085328 37.80974746 -15.31770506 41.65459122 -15.375 45.5 C-18.345 45.5 -21.315 45.5 -24.375 45.5 C-24.49916286 40.3588937 -24.58960196 35.21867154 -24.6496582 30.07641602 C-24.67470857 28.32951645 -24.70875917 26.58272072 -24.75219727 24.83618164 C-24.81327206 22.31630768 -24.84130335 19.79782618 -24.86328125 17.27734375 C-24.88908768 16.50414291 -24.9148941 15.73094208 -24.94148254 14.93431091 C-24.94441096 9.1943381 -23.33043557 5.67061704 -19.375 1.5 C-13.56738884 -2.68688247 -6.42907596 -2.85736709 0 0 Z " fill="#58585A" transform="translate(179.375,474.5)"/>
<path d="M0 0 C2.5625 1.625 2.5625 1.625 4.5625 3.625 C5.9546875 2.6659375 5.9546875 2.6659375 7.375 1.6875 C12.45841233 -1.6017668 16.66445648 -1.92130249 22.5625 -1.375 C27.83572153 0.45034591 30.35941086 3.23219203 33.5625 7.625 C34.79430134 11.32040402 34.68662112 14.72803378 34.66015625 18.57421875 C34.6587413 19.34683548 34.65732635 20.11945221 34.65586853 20.91548157 C34.65027466 23.38119389 34.63772333 25.84681515 34.625 28.3125 C34.61998421 29.98502473 34.61542144 31.65755088 34.61132812 33.33007812 C34.60030724 37.42842046 34.58304684 41.52669479 34.5625 45.625 C31.5925 45.625 28.6225 45.625 25.5625 45.625 C25.532771 44.2023584 25.532771 44.2023584 25.50244141 42.75097656 C25.42424239 39.22467636 25.33754634 35.69879639 25.24511719 32.17285156 C25.20688734 30.64819342 25.172024 29.12344693 25.140625 27.59863281 C25.09484338 25.40397619 25.03687234 23.2099246 24.9765625 21.015625 C24.96501129 20.3363092 24.95346008 19.65699341 24.94155884 18.95709229 C24.83091122 15.39113196 24.61150974 12.60885337 22.5625 9.625 C19.79149606 8.23949803 17.6290294 8.4372533 14.5625 8.625 C11.31400023 10.34726496 11.31400023 10.34726496 10.5625 13.625 C10.40980819 16.06280377 10.30567303 18.47783901 10.24609375 20.91796875 C10.22531265 21.62399734 10.20453156 22.33002594 10.18312073 23.05744934 C10.11782509 25.30903551 10.05883353 27.56073662 10 29.8125 C9.95679575 31.3405066 9.91318084 32.86850164 9.86914062 34.39648438 C9.76216426 38.13920562 9.66084078 41.8820423 9.5625 45.625 C6.5925 45.625 3.6225 45.625 0.5625 45.625 C0.54268066 44.71210205 0.52286133 43.7992041 0.50244141 42.85864258 C0.42413736 39.45717528 0.33743775 36.05613396 0.24511719 32.6550293 C0.20694048 31.18571138 0.17206818 29.71630361 0.140625 28.24682617 C0.09472711 26.12906886 0.03677628 24.0119241 -0.0234375 21.89453125 C-0.07056885 19.98571167 -0.07056885 19.98571167 -0.11865234 18.03833008 C-0.42215487 14.78927278 -0.93521061 12.50644577 -2.4375 9.625 C-5.20850394 8.23949803 -7.3709706 8.4372533 -10.4375 8.625 C-13.68599977 10.34726496 -13.68599977 10.34726496 -14.4375 13.625 C-14.59019181 16.06280377 -14.69432697 18.47783901 -14.75390625 20.91796875 C-14.77468735 21.62399734 -14.79546844 22.33002594 -14.81687927 23.05744934 C-14.88217491 25.30903551 -14.94116647 27.56073662 -15 29.8125 C-15.04320425 31.3405066 -15.08681916 32.86850164 -15.13085938 34.39648438 C-15.23783574 38.13920562 -15.33915922 41.8820423 -15.4375 45.625 C-18.4075 45.625 -21.3775 45.625 -24.4375 45.625 C-24.53685536 40.62627878 -24.60919622 35.62814045 -24.65722656 30.62866211 C-24.67726221 28.93031798 -24.70449885 27.23204215 -24.73925781 25.53393555 C-24.78813415 23.0836496 -24.81054872 20.6342806 -24.828125 18.18359375 C-24.84877014 17.43226669 -24.86941528 16.68093964 -24.89068604 15.90684509 C-24.89300792 10.3718302 -23.56200574 7.20424991 -20.4375 2.625 C-14.57506499 -2.38380422 -6.92859885 -2.77143954 0 0 Z " fill="#58585A" transform="translate(246.4375,474.375)"/>
<path d="M0 0 C2.97 0 5.94 0 9 0 C9.09940099 6.79520475 9.17172033 13.58997962 9.21972656 20.38574219 C9.23975417 22.69408549 9.26698439 25.00237862 9.30175781 27.31054688 C9.35066594 30.64205357 9.37305811 33.97288538 9.390625 37.3046875 C9.41127014 38.32488983 9.43191528 39.34509216 9.45318604 40.39620972 C9.45548162 47.84439822 8.43030455 55.24824042 3.22027588 60.94650269 C-2.3316623 65.9601875 -7.54748235 67.89251176 -15 68 C-22.48421015 67.22449796 -27.50895955 64.60426956 -32.75 59.125 C-37.84202675 52.05274063 -37.76180657 44.42808782 -37 36 C-35.36523255 29.7937571 -31.30728907 25.46463362 -26 22 C-20.1457072 19.19720949 -13.76351452 18.97948587 -7.5078125 20.67578125 C-5.64225419 21.37619549 -3.81526631 22.17799261 -2 23 C-2 26.3 -2 29.6 -2 33 C-2.763125 32.690625 -3.52625 32.38125 -4.3125 32.0625 C-10.26634546 29.70865412 -15.23070369 29.05948427 -21.3125 31.125 C-24.7035504 33.49084912 -25.69191397 35.07574192 -27 39 C-27.72177376 44.59374661 -27.45824205 49.35298724 -24 54 C-20.1338172 56.87351424 -17.08856966 58.03628566 -12.25 57.875 C-7.3060172 56.62365809 -7.3060172 56.62365809 -3.75579834 53.22059631 C-1.00580294 47.07742226 -0.39918646 41.7463224 -0.390625 35.05859375 C-0.37408875 34.05031021 -0.35755249 33.04202667 -0.34051514 32.00318909 C-0.29232095 28.81456233 -0.27072756 25.62641148 -0.25 22.4375 C-0.22181646 20.26234621 -0.19188573 18.08721432 -0.16015625 15.91210938 C-0.08656954 10.60811214 -0.03682051 5.3043747 0 0 Z " fill="#58585A" transform="translate(464,453)"/>
<path d="M0 0 C2.97 0 5.94 0 9 0 C9.01401855 2.0728125 9.01401855 2.0728125 9.02832031 4.1875 C9.0683434 9.33902629 9.13413701 14.48996312 9.20751953 19.64111328 C9.23565772 21.86597086 9.25690765 24.09092707 9.27099609 26.31591797 C9.29252432 29.52362303 9.33922678 32.73015103 9.390625 35.9375 C9.39185364 36.92427734 9.39308228 37.91105469 9.39434814 38.92773438 C9.52101813 44.96856002 10.28082091 50.06295128 14 55 C17.83963623 57.3907169 20.11248065 58.03060412 24.625 57.875 C29.38557723 56.64077627 31.98468269 55.47045956 34.8125 51.375 C36.7589547 45.84297086 36.72730186 41.18190559 34.875 35.625 C32.51655576 32.32317806 30.83958155 31.30400883 27 30 C20.79330118 29.39935173 16.70029494 30.55701645 11 33 C11 29.7 11 26.4 11 23 C17.00311567 19.79833831 22.24178049 19.27127027 29 20 C35.51509086 22.0292906 40.7852903 25.54281881 44.375 31.4375 C47.36219433 38.10511942 47.22780225 46.05535872 45.08203125 52.94921875 C42.20024 59.18843671 38.75344996 62.97110813 32.6875 66.25 C24.35993576 68.57397142 17.45691669 68.44693465 9.8125 64.25 C4.73931347 60.19145077 1.56377958 56.3243276 0 50 C-0.26503016 46.15663447 -0.23271741 42.3274431 -0.1953125 38.4765625 C-0.1924826 37.37524994 -0.18965271 36.27393738 -0.18673706 35.13925171 C-0.17557478 31.63438892 -0.15047711 28.12978508 -0.125 24.625 C-0.11496511 22.24349328 -0.10584015 19.86198255 -0.09765625 17.48046875 C-0.07564832 11.65354661 -0.04114537 5.82681716 0 0 Z " fill="#58585A" transform="translate(811,453)"/>
<path d="M0 0 C4.14950461 3.68650725 6.01022264 6.5366305 7 12 C3.3906386 13.96068791 -0.22065776 15.91775927 -3.83374023 17.87158203 C-5.06115812 18.53596864 -6.28805426 19.20132014 -7.5144043 19.86767578 C-9.28294731 20.828419 -11.05356333 21.78534306 -12.82421875 22.7421875 C-13.88729248 23.3182373 -14.95036621 23.89428711 -16.0456543 24.48779297 C-18.65946992 25.82569677 -21.25445272 26.96570329 -24 28 C-27.04799033 23.61089392 -27.04799033 23.61089392 -26.84204102 20.98925781 C-25.72014983 18.33887527 -24.48719623 17.76242597 -21.96484375 16.421875 C-21.15595703 15.98359375 -20.34707031 15.5453125 -19.51367188 15.09375 C-18.66353516 14.6503125 -17.81339844 14.206875 -16.9375 13.75 C-16.08349609 13.29109375 -15.22949219 12.8321875 -14.34960938 12.359375 C-12.2391407 11.22750353 -10.1228375 10.10844864 -8 9 C-8 8.34 -8 7.68 -8 7 C-11.47673705 5.26163148 -15.19870798 5.54563681 -19 6 C-22.74526566 7.80327606 -24.54125416 9.32717277 -26.875 12.75 C-28.47385374 17.36891079 -28.89152929 21.33602556 -27.34375 25.9609375 C-25.62016377 29.48240246 -24.15591217 30.90405405 -20.75 33 C-15.24164654 34.46889426 -11.31439937 34.28577743 -6.1875 31.4375 C-3.25395139 28.16868869 -2.32261316 25.17667315 -1 21 C6.75 20.875 6.75 20.875 9 22 C8.57492316 28.80122942 6.23306723 33.585881 1.53515625 38.546875 C-4.0492049 43.18913121 -11.45934493 44.33916478 -18.5625 43.80859375 C-25.33376703 42.53898118 -30.62358646 39.32139996 -34.89453125 33.8203125 C-39.05320361 26.97246332 -39.75145045 19.7144039 -38 12 C-35.05882429 4.57703272 -31.00091841 0.50045921 -24 -3 C-15.83804065 -5.54114611 -7.13933874 -4.74107544 0 0 Z " fill="#58585A" transform="translate(900,477)"/>
<path d="M0 0 C4.8445532 2.71138703 7.76195205 6.30972226 10.625 11 C9.12373724 15.17792393 6.70597578 16.40030213 2.8828125 18.453125 C1.73425781 19.071875 0.58570313 19.690625 -0.59765625 20.328125 C-1.19723145 20.64330078 -1.79680664 20.95847656 -2.41455078 21.28320312 C-4.24430357 22.24699949 -6.06183746 23.23128745 -7.87890625 24.21875 C-16.84877232 29 -16.84877232 29 -21.375 29 C-22.365 26.69 -23.355 24.38 -24.375 22 C-23.77437744 21.67201416 -23.17375488 21.34402832 -22.55493164 21.00610352 C-19.84813901 19.52669094 -17.14280439 18.04463214 -14.4375 16.5625 C-13.01920898 15.7880957 -13.01920898 15.7880957 -11.57226562 14.99804688 C-10.67314453 14.50498047 -9.77402344 14.01191406 -8.84765625 13.50390625 C-8.01500244 13.04830322 -7.18234863 12.5927002 -6.32446289 12.12329102 C-4.43593156 11.14748115 -4.43593156 11.14748115 -3.375 10 C-7.11121809 7.50918794 -11.04154319 7.45507429 -15.375 8 C-19.94384617 9.86907343 -22.18294622 12.61589244 -24.375 17 C-25.28634001 22.65030805 -24.59276976 27.17334536 -21.375 32 C-18.56183704 35.02154541 -15.55005231 35.69330212 -11.46875 36.06640625 C-7.09263516 35.92761156 -3.62389716 34.24889716 -0.5625 31.1875 C0.87296266 28.54322668 1.77381835 25.88092252 2.625 23 C9.25 22.875 9.25 22.875 12.625 24 C11.51181138 31.32710717 9.69449258 36.89560447 3.6484375 41.5078125 C-2.61875574 45.38328535 -8.65263935 46.68793114 -15.94921875 45.625 C-23.65722727 43.73636085 -29.19555039 39.58554614 -33.3125 32.8125 C-36.14667842 25.31026301 -36.15346272 18.62357937 -33.3359375 11.1015625 C-30.47643394 4.84785146 -26.32154394 1.73092204 -20.18359375 -1.078125 C-13.24761335 -3.35474722 -6.65721612 -2.93877108 0 0 Z " fill="#58585A" transform="translate(1072.375,475)"/>
<path d="M0 0 C4.64103133 2.62416958 8.36174678 6.10481882 10.625 11 C9.26681911 15.07454266 7.45607175 15.49594948 3.7265625 17.5390625 C3.13579926 17.86538666 2.54503601 18.19171082 1.93637085 18.52792358 C0.68620739 19.21633304 -0.56642295 19.90027867 -1.82128906 20.58007812 C-3.74022278 21.61970298 -5.65186646 22.6717746 -7.5625 23.7265625 C-16.84945698 28.82481899 -16.84945698 28.82481899 -20.375 30 C-24.375 24.25 -24.375 24.25 -24.375 22 C-23.77437744 21.67201416 -23.17375488 21.34402832 -22.55493164 21.00610352 C-19.84813901 19.52669094 -17.14280439 18.04463214 -14.4375 16.5625 C-13.01920898 15.7880957 -13.01920898 15.7880957 -11.57226562 14.99804688 C-10.67314453 14.50498047 -9.77402344 14.01191406 -8.84765625 13.50390625 C-8.01500244 13.04830322 -7.18234863 12.5927002 -6.32446289 12.12329102 C-4.43593156 11.14748115 -4.43593156 11.14748115 -3.375 10 C-7.12115327 7.50256449 -11.03392476 7.47304867 -15.375 8 C-19.17488659 9.29052752 -20.88006993 10.32359557 -23.25 13.5625 C-25.19409355 19.50278584 -25.42087913 24.69906592 -22.8125 30.4375 C-19.44738729 33.9751826 -16.28154117 35.81765046 -11.3203125 36.12890625 C-7.51643584 35.8920611 -5.65635606 35.21258014 -2.5625 32.875 C-0.09834836 29.6364007 1.20976007 26.79880192 2.625 23 C9.25 22.875 9.25 22.875 12.625 24 C11.51181138 31.32710717 9.69449258 36.89560447 3.6484375 41.5078125 C-3.02563767 45.63489079 -9.91911961 46.92706542 -17.625 45.3125 C-24.49267058 42.9088153 -29.30935178 38.97220996 -33.375 33 C-36.27494857 25.88194441 -36.33504032 19.02285129 -33.8125 11.8125 C-31.03961398 5.52468803 -26.98042132 2.53260078 -21.1875 -0.875 C-13.91432739 -3.02118208 -6.99896702 -3.12472736 0 0 Z " fill="#58585A" transform="translate(410.375,475)"/>
<path d="M0 0 C5.55898794 3.80986696 8.62324088 8.963471 10.16015625 15.48046875 C11.0754261 22.63963429 9.81292982 28.75586747 5.61328125 34.65234375 C1.10404617 40.11929248 -3.04689605 43.18466668 -10.15234375 44.29296875 C-17.64611599 44.8985261 -23.96874229 43.28409722 -29.83984375 38.48046875 C-35.81200808 32.30923228 -37.70261217 26.95140011 -37.83984375 18.48046875 C-37.32648591 11.55584193 -34.72541427 6.39942586 -29.83984375 1.48046875 C-20.7920882 -5.28092093 -9.69029823 -5.48246667 0 0 Z M-25.08984375 10.98046875 C-28.0710315 15.23930839 -28.48314817 19.40861943 -27.83984375 24.48046875 C-26.42841187 28.93951469 -24.13430394 31.65570029 -20.08984375 33.98046875 C-15.81384579 35.81644557 -12.23858759 36.06183534 -7.83984375 34.48046875 C-4.09001618 32.2405275 -1.4797808 29.55049433 0.16015625 25.48046875 C0.85945741 20.62601765 0.79441645 15.96735331 -1.46484375 11.54296875 C-4.46500567 7.67433891 -6.91952074 5.88782225 -11.828125 5.203125 C-17.95775093 4.91453621 -21.0846577 6.53026203 -25.08984375 10.98046875 Z " fill="#58585A" transform="translate(572.83984375,476.51953125)"/>
<path d="M0 0 C5.01161518 4.43039942 8.55112476 9.84166967 9.28125 16.60546875 C9.52546551 23.98281221 8.17021944 29.41079093 4.375 35.6875 C-0.72204649 40.65041369 -6.59699338 43.66463702 -13.74609375 44.0625 C-21.64661357 43.84342146 -27.26814576 41.48546231 -33 36 C-38.7989023 29.04466921 -38.66776355 21.70995937 -38 13 C-36.31858728 6.27434914 -31.52192326 1.90100645 -26 -2 C-17.84817857 -6.16648651 -7.50812936 -4.97614811 0 0 Z M-26.60546875 10.84375 C-29.05589466 14.63264384 -29.19971302 18.56637097 -29 23 C-28.03130292 26.9975809 -26.45678727 29.83264067 -23.23046875 32.41796875 C-19.126623 34.78961925 -15.56033351 35.58053678 -10.890625 34.6796875 C-6.95849438 33.26607029 -4.07922207 30.73340805 -1.859375 27.16796875 C-0.17972809 22.93067769 -0.47547854 18.46814574 -1 14 C-3.13609177 9.56958744 -5.40398702 6.83840519 -10 5 C-17.03420246 3.94486963 -21.79504972 5.31937584 -26.60546875 10.84375 Z " fill="#58585A" transform="translate(698,477)"/>
<path d="M0 0 C5.58984686 3.19055186 9.70115158 8.94720473 11.7109375 14.9765625 C12.32388368 22.88457301 12.85590583 30.50774268 7.7109375 36.9765625 C2.24887935 42.74925903 -3.0735585 45.23233698 -10.9609375 45.9375 C-17.86196127 46.05328899 -24.06173793 43.43319178 -29.2890625 38.9765625 C-34.35099759 32.67420273 -35.71828399 26.92127181 -35.6328125 18.9296875 C-34.91565041 12.76861322 -32.03540321 7.20075373 -27.4140625 3.0390625 C-18.8254775 -2.6294036 -9.63803149 -4.20926273 0 0 Z M-24.1640625 13.0390625 C-25.93420735 17.66110739 -25.941244 22.09595151 -25.2890625 26.9765625 C-23.3302732 30.89414111 -21.19578139 33.91468308 -17.2890625 35.9765625 C-11.72623986 37.36726816 -8.07688 37.29464539 -3.05859375 34.39453125 C0.1733166 31.80472229 1.72520486 28.974256 2.7109375 24.9765625 C3.0868911 19.90118886 2.60087276 15.55419746 -0.6015625 11.4765625 C-4.96609275 7.41653436 -8.17947514 6.51559406 -14.0390625 6.66015625 C-18.54528217 7.29384339 -21.20259815 9.78145172 -24.1640625 13.0390625 Z " fill="#58585A" transform="translate(136.2890625,475.0234375)"/>
<path d="M0 0 C2.97 0 5.94 0 9 0 C9.01458252 0.88260498 9.02916504 1.76520996 9.04418945 2.67456055 C9.10542067 5.96438643 9.1796033 9.2533993 9.26245117 12.54272461 C9.29560557 13.96351202 9.32366692 15.38442813 9.34643555 16.80541992 C9.38015847 18.8539082 9.43247745 20.9012272 9.48828125 22.94921875 C9.51446533 24.17987061 9.54064941 25.41052246 9.56762695 26.6784668 C10.11469041 30.88106329 11.38816324 33.73355683 14.75 36.375 C18.18207959 37.32835544 20.57822616 36.91654656 24 36 C26.87011205 33.23046398 27.91153501 31.55314359 28.54589844 27.58666992 C28.57731934 25.67785034 28.57731934 25.67785034 28.609375 23.73046875 C28.62591125 23.04946609 28.64244751 22.36846344 28.65948486 21.66682434 C28.70779303 19.50695629 28.7292951 17.34779125 28.75 15.1875 C28.77817444 13.71676183 28.80810394 12.24605617 28.83984375 10.77539062 C28.91354396 7.18374586 28.96322485 3.59223429 29 0 C31.97 0 34.94 0 38 0 C38.07445407 4.73222455 38.1287447 9.46410411 38.16479492 14.19677734 C38.17983176 15.80491072 38.20026672 17.41300344 38.22631836 19.02099609 C38.26292822 21.33962064 38.27977722 23.65770049 38.29296875 25.9765625 C38.30845261 26.68930328 38.32393646 27.40204407 38.33988953 28.13638306 C38.3416857 33.52866365 37.13347298 37.54592316 33.5703125 41.64453125 C30.13744916 44.41865595 28.5107318 45.09785364 24 46 C24 52.6 24 59.2 24 66 C21.03 66 18.06 66 15 66 C15 59.4 15 52.8 15 46 C13.02 45.67 11.04 45.34 9 45 C4.08559963 41.72373309 1.82753274 38.6839695 0 33 C-0.24244192 30.27787258 -0.35412353 27.80590802 -0.29296875 25.09765625 C-0.28872391 24.3750914 -0.28447906 23.65252655 -0.28010559 22.9080658 C-0.26346418 20.62581307 -0.22584248 18.34448067 -0.1875 16.0625 C-0.17243423 14.50457015 -0.15874916 12.9466263 -0.14648438 11.38867188 C-0.11360882 7.59209943 -0.0619309 3.79620513 0 0 Z " fill="#58585A" transform="translate(615,474)"/>
<path d="M0 0 C0 3.3 0 6.6 0 10 C-1.25103516 10.03867187 -1.25103516 10.03867187 -2.52734375 10.078125 C-12.06765633 10.5589655 -19.20677315 11.68097011 -25.9375 18.8125 C-30.04762175 23.95966635 -31.52713085 29.20383024 -31.30859375 35.82421875 C-30.29830257 42.94741096 -27.48782802 48.36702358 -21.87890625 52.84375 C-17.12851492 55.76706774 -12.68206136 56.37261823 -7.1875 56.625 C-6.14819336 56.68300781 -6.14819336 56.68300781 -5.08789062 56.7421875 C-3.39232985 56.83573568 -1.69620288 56.91892364 0 57 C0 60.3 0 63.6 0 67 C-12.41027868 67.34526278 -21.86492729 66.752381 -32 59 C-38.76816061 52.37676788 -42.13599943 43.36694792 -42.5 34 C-42.1735837 25.32182877 -39.21390118 16.27408425 -33 10 C-22.57699574 1.46256435 -13.21716841 -0.1810571 0 0 Z " fill="#58585A" transform="translate(97,453)"/>
<path d="M0 0 C1.20849609 0.01353516 2.41699219 0.02707031 3.66210938 0.04101562 C6.62937082 0.07620054 9.59569937 0.12543304 12.5625 0.1875 C12.5625 3.1575 12.5625 6.1275 12.5625 9.1875 C0.1875 9.6825 0.1875 9.6825 -12.4375 10.1875 C-12.7675 11.5075 -13.0975 12.8275 -13.4375 14.1875 C-12.84324219 14.35765625 -12.24898437 14.5278125 -11.63671875 14.703125 C9.43085839 20.86285206 9.43085839 20.86285206 13.875 27 C15.27041913 31.43996997 14.95903013 35.10225964 13.375 39.4375 C11.06259751 42.94597275 8.76278162 44.48535308 4.78222656 45.75561523 C1.97934083 46.30096333 -0.65997944 46.29915451 -3.515625 46.28515625 C-5.25585938 46.28032227 -5.25585938 46.28032227 -7.03125 46.27539062 C-8.2378125 46.26701172 -9.444375 46.25863281 -10.6875 46.25 C-11.90953125 46.24548828 -13.1315625 46.24097656 -14.390625 46.23632812 C-17.40629946 46.22454815 -20.42187498 46.20809853 -23.4375 46.1875 C-23.4375 43.2175 -23.4375 40.2475 -23.4375 37.1875 C-22.69064941 37.16244385 -21.94379883 37.1373877 -21.17431641 37.11157227 C-17.80352733 36.99581787 -14.43303217 36.87299872 -11.0625 36.75 C-9.886875 36.71068359 -8.71125 36.67136719 -7.5 36.63085938 C-6.37851562 36.58896484 -5.25703125 36.54707031 -4.1015625 36.50390625 C-3.06467285 36.46724854 -2.0277832 36.43059082 -0.95947266 36.39282227 C1.55675166 36.34585777 1.55675166 36.34585777 3.5625 35.1875 C3.5625 33.8675 3.5625 32.5475 3.5625 31.1875 C3.01835449 30.99639648 2.47420898 30.80529297 1.91357422 30.60839844 C-0.58156252 29.72663844 -3.07197224 28.83219106 -5.5625 27.9375 C-6.4184375 27.63714844 -7.274375 27.33679688 -8.15625 27.02734375 C-19.20068472 23.03435581 -19.20068472 23.03435581 -22.8125 18.4375 C-24.09145905 13.83324741 -24.04188778 9.78735002 -22.375 5.375 C-16.49799844 -1.26032434 -8.1433016 -0.17326174 0 0 Z " fill="#58585A" transform="translate(936.4375,473.8125)"/>
<path d="M0 0 C1.15693359 0.00644531 2.31386719 0.01289063 3.50585938 0.01953125 C4.70404297 0.03628906 5.90222656 0.05304688 7.13671875 0.0703125 C8.96299805 0.08384766 8.96299805 0.08384766 10.82617188 0.09765625 C13.82572149 0.12118213 16.82486919 0.15405597 19.82421875 0.1953125 C19.82421875 3.1653125 19.82421875 6.1353125 19.82421875 9.1953125 C11.90421875 9.5253125 3.98421875 9.8553125 -4.17578125 10.1953125 C-4.17578125 11.5153125 -4.17578125 12.8353125 -4.17578125 14.1953125 C-2.45681641 14.77539062 -2.45681641 14.77539062 -0.703125 15.3671875 C0.82695061 15.89285765 2.3568914 16.41892029 3.88671875 16.9453125 C4.63888672 17.19796875 5.39105469 17.450625 6.16601562 17.7109375 C18.30363948 21.9144436 18.30363948 21.9144436 21.82421875 27.1953125 C22.95385055 32.18451962 23.00032854 35.53222009 20.82421875 40.1953125 C17.94874834 43.89234589 15.27771847 44.95871226 10.82421875 46.1953125 C7.75634766 46.42236328 7.75634766 46.42236328 4.55078125 46.390625 C2.82021484 46.38095703 2.82021484 46.38095703 1.0546875 46.37109375 C-0.13511719 46.35433594 -1.32492187 46.33757813 -2.55078125 46.3203125 C-3.76378906 46.31128906 -4.97679687 46.30226563 -6.2265625 46.29296875 C-9.20983898 46.26947838 -12.19270719 46.23662932 -15.17578125 46.1953125 C-15.17578125 43.2253125 -15.17578125 40.2553125 -15.17578125 37.1953125 C-14.42893066 37.17025635 -13.68208008 37.1452002 -12.91259766 37.11938477 C-9.54180858 37.00363037 -6.17131342 36.88081122 -2.80078125 36.7578125 C-1.62515625 36.71849609 -0.44953125 36.67917969 0.76171875 36.63867188 C1.88320312 36.59677734 3.0046875 36.55488281 4.16015625 36.51171875 C5.1970459 36.47506104 6.23393555 36.43840332 7.30224609 36.40063477 C9.81847041 36.35367027 9.81847041 36.35367027 11.82421875 35.1953125 C11.82421875 33.5453125 11.82421875 31.8953125 11.82421875 30.1953125 C11.169375 30.03675781 10.51453125 29.87820313 9.83984375 29.71484375 C-10.52713556 24.50803124 -10.52713556 24.50803124 -15.17578125 17.1953125 C-16.18034072 12.46797383 -15.85654605 8.40556103 -13.48828125 4.1953125 C-9.26834097 0.54563442 -5.48355614 -0.05402518 0 0 Z " fill="#58585A" transform="translate(1254.17578125,473.8046875)"/>
<path d="M0 0 C3.3 0 6.6 0 10 0 C10.00410889 0.91289795 10.00821777 1.8257959 10.01245117 2.76635742 C10.03949402 6.16834778 10.08863862 9.56855061 10.15258789 12.9699707 C10.17571993 14.43925947 10.1901524 15.90871292 10.19555664 17.37817383 C10.20488279 19.49664345 10.24594127 21.61254065 10.29296875 23.73046875 C10.31653442 25.63928833 10.31653442 25.63928833 10.34057617 27.58666992 C11.16439314 31.85093686 12.65115059 33.32023899 16 36 C18.89706707 37.24677006 18.89706707 37.24677006 22 37 C26.2420814 34.75278859 26.2420814 34.75278859 29 31 C29.15520557 28.67726841 29.25019167 26.35040687 29.31640625 24.0234375 C29.33718735 23.33819 29.35796844 22.6529425 29.37937927 21.94692993 C29.44480185 19.75638931 29.50372554 17.56572811 29.5625 15.375 C29.60569218 13.8906125 29.6493067 12.40623722 29.69335938 10.921875 C29.80047553 7.28137916 29.90176362 3.64074749 30 0 C33.3 0 36.6 0 40 0 C40.07493036 3.96516109 40.12896449 7.93004014 40.16479492 11.89575195 C40.18705458 13.89744576 40.22520146 15.89894275 40.26367188 17.90039062 C40.32874995 26.51238927 39.83532759 33.50258382 35.1875 40.875 C30.60056524 45.33087948 25.34450489 47 19 47 C13.54542818 46.34381091 9.24254463 44.56759435 5 41 C0.554056 35.03419655 -0.12961747 29.42316612 -0.09765625 22.16796875 C-0.09443359 20.87568359 -0.09121094 19.58339844 -0.08789062 18.25195312 C-0.07953665 16.89713474 -0.07107172 15.54231703 -0.0625 14.1875 C-0.05748 12.81315265 -0.05291797 11.43880355 -0.04882812 10.06445312 C-0.03705668 6.70959076 -0.02061283 3.35481779 0 0 Z " fill="#58585A" transform="translate(1121,474)"/>
<path d="M0 0 C5.52212399 3.21841582 7.88975746 7.23232752 9.5625 13.3125 C9.72089988 15.83701932 9.77804772 18.36903464 9.7578125 20.8984375 C9.7549826 21.60022125 9.75215271 22.302005 9.74923706 23.02505493 C9.73812512 25.24605028 9.71303834 27.46662845 9.6875 29.6875 C9.67745854 31.20181705 9.66833473 32.71614049 9.66015625 34.23046875 C9.63821554 37.92461258 9.60374875 41.61851551 9.5625 45.3125 C6.5925 45.3125 3.6225 45.3125 0.5625 45.3125 C0.54791748 44.4654248 0.53333496 43.61834961 0.51831055 42.74560547 C0.45698823 39.58068066 0.38278648 36.41638496 0.30004883 33.25195312 C0.26694614 31.8865075 0.23886914 30.52092987 0.21606445 29.15527344 C0.18225009 27.18396776 0.12841714 25.21303809 0.07421875 23.2421875 C0.04803467 22.05866699 0.02185059 20.87514648 -0.00512695 19.65576172 C-0.48633843 15.93486397 -1.47777309 13.49904313 -3.4375 10.3125 C-7.1748856 7.8209096 -9.01081583 7.85456715 -13.4375 8.3125 C-16.82689556 10.44929285 -18.16332557 11.4899767 -19.4375 15.3125 C-19.58895099 17.5950699 -19.68636979 19.88137706 -19.75390625 22.16796875 C-19.77468735 22.82960526 -19.79546844 23.49124176 -19.81687927 24.17292786 C-19.88214727 26.28184852 -19.94115344 28.39089135 -20 30.5 C-20.04320689 31.93165315 -20.08682188 33.36329404 -20.13085938 34.79492188 C-20.23780506 38.30065154 -20.33913641 41.80651786 -20.4375 45.3125 C-23.4075 45.3125 -26.3775 45.3125 -29.4375 45.3125 C-29.53708121 40.75934078 -29.60929985 36.20682848 -29.65722656 31.65283203 C-29.67722503 30.10682113 -29.70443331 28.56088473 -29.73925781 27.01513672 C-30.09008303 11.03195264 -30.09008303 11.03195264 -25.4375 4.3125 C-18.56902922 -2.37985614 -8.77856788 -4.06049863 0 0 Z " fill="#58585A" transform="translate(1223.4375,474.6875)"/>
<path d="M0 0 C2.97 0 5.94 0 9 0 C9.01458252 0.8470752 9.02916504 1.69415039 9.04418945 2.56689453 C9.10551177 5.73181934 9.17971352 8.89611504 9.26245117 12.06054688 C9.29555386 13.4259925 9.32363086 14.79157013 9.34643555 16.15722656 C9.38024991 18.12853224 9.43408286 20.09946191 9.48828125 22.0703125 C9.51446533 23.25383301 9.54064941 24.43735352 9.56762695 25.65673828 C10.04669088 29.36103042 11.06872131 31.81814161 13 35 C16.01942976 36.87694282 17.58089019 37.04191098 21.125 36.6875 C24.04520021 36.03322111 24.04520021 36.03322111 27 35 C28.90642904 30.68469089 29.28981419 26.75033233 29.4140625 22.0703125 C29.45273437 20.78125 29.49140625 19.4921875 29.53125 18.1640625 C29.56269758 16.81771293 29.59394511 15.47135868 29.625 14.125 C29.66323041 12.75518486 29.70228501 11.38539245 29.7421875 10.015625 C29.83622715 6.67721737 29.92188057 3.33881186 30 0 C32.97 0 35.94 0 39 0 C39.09961729 4.41074704 39.17181669 8.82088095 39.21972656 13.23242188 C39.23971919 14.7299339 39.26692299 16.22736908 39.30175781 17.72460938 C39.52885979 27.74381436 39.45765582 34.99872761 32.4375 42.875 C27.702194 46.41149435 21.53899073 47.19113016 15.7578125 46.87890625 C10.5294646 45.89223359 6.31857482 43.14191743 3 39 C0.41460969 33.85561724 -0.36350342 30.1707837 -0.29296875 24.31640625 C-0.28872391 23.61603745 -0.28447906 22.91566864 -0.28010559 22.19407654 C-0.26347156 19.98314 -0.2258518 17.77315543 -0.1875 15.5625 C-0.17243326 14.05274765 -0.15874836 12.54298084 -0.14648438 11.03320312 C-0.11361921 7.35516566 -0.06194582 3.67767593 0 0 Z " fill="#58585A" transform="translate(713,474)"/>
<path d="M0 0 C2.97 0 5.94 0 9 0 C9 3.63 9 7.26 9 11 C14.28 11 19.56 11 25 11 C25 13.97 25 16.94 25 20 C19.72 20 14.44 20 9 20 C9.08658178 24.1260695 9.19341895 28.24985251 9.3125 32.375 C9.33505859 33.550625 9.35761719 34.72625 9.38085938 35.9375 C9.41630859 37.05898438 9.45175781 38.18046875 9.48828125 39.3359375 C9.51446533 40.37282715 9.54064941 41.4097168 9.56762695 42.47802734 C9.71031006 43.31027832 9.85299316 44.1425293 10 45 C13.40431947 47.26954631 15.16524202 47.36549949 19.1875 47.625 C20.27417969 47.69976562 21.36085938 47.77453125 22.48046875 47.8515625 C23.31191406 47.90054688 24.14335937 47.94953125 25 48 C25 50.97 25 53.94 25 57 C9.73984955 57.57146194 9.73984955 57.57146194 4 54 C0.64879109 50.42537716 -0.12640621 47.14951736 -0.11352539 42.3449707 C-0.11344986 41.40422195 -0.11337433 40.46347321 -0.11329651 39.49421692 C-0.10813522 38.48163315 -0.10297394 37.46904938 -0.09765625 36.42578125 C-0.0962413 35.38681198 -0.09482635 34.34784271 -0.09336853 33.27738953 C-0.08776656 29.95573052 -0.07521372 26.63413867 -0.0625 23.3125 C-0.05748525 21.06184993 -0.0529223 18.81119881 -0.04882812 16.56054688 C-0.03779648 11.04033867 -0.02053051 5.52018072 0 0 Z " fill="#58585A" transform="translate(347,463)"/>
<path d="M0 0 C2.97 0 5.94 0 9 0 C9 3.63 9 7.26 9 11 C14.28 11 19.56 11 25 11 C25 13.97 25 16.94 25 20 C19.72 20 14.44 20 9 20 C9.08658178 24.1260695 9.19341895 28.24985251 9.3125 32.375 C9.33505859 33.550625 9.35761719 34.72625 9.38085938 35.9375 C9.41630859 37.05898438 9.45175781 38.18046875 9.48828125 39.3359375 C9.51446533 40.37282715 9.54064941 41.4097168 9.56762695 42.47802734 C9.71031006 43.31027832 9.85299316 44.1425293 10 45 C13.40431947 47.26954631 15.16524202 47.36549949 19.1875 47.625 C20.27417969 47.69976562 21.36085938 47.77453125 22.48046875 47.8515625 C23.31191406 47.90054688 24.14335937 47.94953125 25 48 C25 50.97 25 53.94 25 57 C9.73984955 57.57146194 9.73984955 57.57146194 4 54 C0.64879109 50.42537716 -0.12640621 47.14951736 -0.11352539 42.3449707 C-0.11344986 41.40422195 -0.11337433 40.46347321 -0.11329651 39.49421692 C-0.10813522 38.48163315 -0.10297394 37.46904938 -0.09765625 36.42578125 C-0.0962413 35.38681198 -0.09482635 34.34784271 -0.09336853 33.27738953 C-0.08776656 29.95573052 -0.07521372 26.63413867 -0.0625 23.3125 C-0.05748525 21.06184993 -0.0529223 18.81119881 -0.04882812 16.56054688 C-0.03779648 11.04033867 -0.02053051 5.52018072 0 0 Z " fill="#58585A" transform="translate(316,463)"/>
<path d="M0 0 C2.97 0 5.94 0 9 0 C9 3.63 9 7.26 9 11 C14.28 11 19.56 11 25 11 C25 13.97 25 16.94 25 20 C19.72 20 14.44 20 9 20 C9.33 28.91 9.66 37.82 10 47 C14.95 47.33 19.9 47.66 25 48 C25 50.97 25 53.94 25 57 C9.49055614 57.58079748 9.49055614 57.58079748 4 54 C-0.75627833 48.64999504 -0.53133308 43.85893266 -0.390625 36.9140625 C-0.38496521 35.85714203 -0.37930542 34.80022156 -0.37347412 33.71127319 C-0.35115467 30.3487137 -0.30096481 26.98723528 -0.25 23.625 C-0.22992935 21.33985918 -0.21167957 19.0547016 -0.1953125 16.76953125 C-0.1513041 11.17927348 -0.08230565 5.58981979 0 0 Z " fill="#58585A" transform="translate(1092,463)"/>
<path d="M0 0 C2.97 0 5.94 0 9 0 C9 3.63 9 7.26 9 11 C14.28 11 19.56 11 25 11 C25 13.97 25 16.94 25 20 C19.72 20 14.44 20 9 20 C9.14055641 23.77109855 9.28720986 27.54178769 9.4375 31.3125 C9.47681641 32.38435547 9.51613281 33.45621094 9.55664062 34.56054688 C9.61948242 36.10258789 9.61948242 36.10258789 9.68359375 37.67578125 C9.72025146 38.62364502 9.75690918 39.57150879 9.79467773 40.5480957 C9.91430187 43.136171 9.91430187 43.136171 11 46 C13.70183055 47.35091528 16.11808206 47.33858058 19.125 47.5625 C20.22070312 47.64628906 21.31640625 47.73007812 22.4453125 47.81640625 C23.70988281 47.90728516 23.70988281 47.90728516 25 48 C25 50.97 25 53.94 25 57 C10.79668191 57.57667607 10.79668191 57.57667607 5 54 C1.19483253 49.99456055 -0.12850022 46.90257881 -0.11352539 41.43676758 C-0.11344986 40.51603958 -0.11337433 39.59531158 -0.11329651 38.64668274 C-0.10813522 37.65597275 -0.10297394 36.66526276 -0.09765625 35.64453125 C-0.0962413 34.62775803 -0.09482635 33.6109848 -0.09336853 32.56340027 C-0.08776707 29.31307036 -0.07521432 26.06280912 -0.0625 22.8125 C-0.05748519 20.61002704 -0.05292225 18.40755299 -0.04882812 16.20507812 C-0.03779716 10.80335893 -0.02053154 5.40169111 0 0 Z " fill="#58585A" transform="translate(957,463)"/>
<path d="M0 0 C2.97 0 5.94 0 9 0 C9 3.63 9 7.26 9 11 C14.28 11 19.56 11 25 11 C25 13.97 25 16.94 25 20 C19.72 20 14.44 20 9 20 C9.14055641 23.77109855 9.28720986 27.54178769 9.4375 31.3125 C9.47681641 32.38435547 9.51613281 33.45621094 9.55664062 34.56054688 C9.61948242 36.10258789 9.61948242 36.10258789 9.68359375 37.67578125 C9.72025146 38.62364502 9.75690918 39.57150879 9.79467773 40.5480957 C9.91430187 43.136171 9.91430187 43.136171 11 46 C13.70183055 47.35091528 16.11808206 47.33858058 19.125 47.5625 C20.22070312 47.64628906 21.31640625 47.73007812 22.4453125 47.81640625 C23.70988281 47.90728516 23.70988281 47.90728516 25 48 C25 50.97 25 53.94 25 57 C10.79668191 57.57667607 10.79668191 57.57667607 5 54 C1.19483253 49.99456055 -0.12850022 46.90257881 -0.11352539 41.43676758 C-0.11344986 40.51603958 -0.11337433 39.59531158 -0.11329651 38.64668274 C-0.10813522 37.65597275 -0.10297394 36.66526276 -0.09765625 35.64453125 C-0.0962413 34.62775803 -0.09482635 33.6109848 -0.09336853 32.56340027 C-0.08776707 29.31307036 -0.07521432 26.06280912 -0.0625 22.8125 C-0.05748519 20.61002704 -0.05292225 18.40755299 -0.04882812 16.20507812 C-0.03779716 10.80335893 -0.02053154 5.40169111 0 0 Z " fill="#58585A" transform="translate(507,463)"/>
<path d="M0 0 C0 2.97 0 5.94 0 9 C-1.2375 9.20625 -2.475 9.4125 -3.75 9.625 C-7.12878018 10.48614044 -7.94737278 10.94332453 -10.4375 13.625 C-13.68220176 20.63355581 -13.25774665 28.8861621 -13.5625 36.5 C-13.60568359 37.51320313 -13.64886719 38.52640625 -13.69335938 39.5703125 C-13.79849192 42.0467679 -13.90063837 44.52330749 -14 47 C-16.97 47 -19.94 47 -23 47 C-23 31.82 -23 16.64 -23 1 C-20.03 1 -17.06 1 -14 1 C-13.67 1.66 -13.34 2.32 -13 3 C-11.7315625 2.2575 -11.7315625 2.2575 -10.4375 1.5 C-6.66203168 -0.14747708 -4.07182452 -0.24430947 0 0 Z " fill="#58585A" transform="translate(782,473)"/>
<path d="M0 0 C0 2.97 0 5.94 0 9 C-1.2375 9.226875 -2.475 9.45375 -3.75 9.6875 C-6.97801134 10.49307451 -7.95725343 10.9583495 -10.4375 13.375 C-12.98096093 17.64801436 -13.15349063 21.36285914 -13.31640625 26.296875 C-13.35830078 27.50214844 -13.40019531 28.70742188 -13.44335938 29.94921875 C-13.48267578 31.20347656 -13.52199219 32.45773437 -13.5625 33.75 C-13.60568359 35.01972656 -13.64886719 36.28945313 -13.69335938 37.59765625 C-13.79939722 40.73166365 -13.90146058 43.86574933 -14 47 C-16.97 47 -19.94 47 -23 47 C-23 31.82 -23 16.64 -23 1 C-20.03 1 -17.06 1 -14 1 C-13.67 1.66 -13.34 2.32 -13 3 C-12.34 2.505 -11.68 2.01 -11 1.5 C-7.03366759 -0.48316621 -4.39696738 -0.22357461 0 0 Z " fill="#58585A" transform="translate(1191,473)"/>
<path d="M0 0 C0 2.97 0 5.94 0 9 C-1.258125 9.268125 -2.51625 9.53625 -3.8125 9.8125 C-8.0560444 10.8874456 -8.0560444 10.8874456 -11 14 C-12.88440106 17.95512788 -13.29452872 21.25029816 -13.4140625 25.61328125 C-13.47207031 27.4840332 -13.47207031 27.4840332 -13.53125 29.39257812 C-13.57765625 31.33293945 -13.57765625 31.33293945 -13.625 33.3125 C-13.68300781 35.28186523 -13.68300781 35.28186523 -13.7421875 37.29101562 C-13.83633117 40.52720437 -13.92196352 43.76338935 -14 47 C-16.97 47 -19.94 47 -23 47 C-23 31.82 -23 16.64 -23 1 C-20.03 1 -17.06 1 -14 1 C-13.67 1.66 -13.34 2.32 -13 3 C-12.34 2.505 -11.68 2.01 -11 1.5 C-7.03366759 -0.48316621 -4.39696738 -0.22357461 0 0 Z " fill="#58585A" transform="translate(1036,473)"/>
<path d="M0 0 C3.3 0 6.6 0 10 0 C10 15.18 10 30.36 10 46 C6.7 46 3.4 46 0 46 C0 30.82 0 15.64 0 0 Z " fill="#58585A" transform="translate(293,474)"/>
<path d="M0 0 C1.010625 0.0825 2.02125 0.165 3.0625 0.25 C5.0625 3.25 5.0625 3.25 4.6875 5.9375 C4.48125 6.700625 4.275 7.46375 4.0625 8.25 C1.7525 8.58 -0.5575 8.91 -2.9375 9.25 C-4.9375 6.25 -4.9375 6.25 -4.625 3.625 C-3.63837192 0.21664846 -3.64560971 0.31026466 0 0 Z " fill="#58585A" transform="translate(297.9375,459.75)"/>
</svg>
