<svg version="1.1" id="Layer_1" xmlns="http://www.w3.org/2000/svg" xmlns:xlink="http://www.w3.org/1999/xlink" x="0px" y="0px" viewBox="0 0 311 54" style="enable-background:new 0 0 311 54;" xml:space="preserve">
 <style type="text/css">
  .st0{fill:#E12127;}
 </style>
 <g>
  <path class="st0" d="M74.5,27H54.7c-0.2,4.1,1.5,7.2,6.5,7.2c3.5,0,7-1.1,8.9-1.8l0.9,5.9c-2.8,1.3-7,2.3-12,2.3
		c-8.5,0-13.5-4.6-13.5-12.5c0-4.8,1.7-10.2,4.6-13.9C53.2,9.7,58.2,7,64.3,7C71.7,7,76,11.1,76,18.4C76,20.2,75.4,24.1,74.5,27z
		 M63.2,12.5c-2.8,0-5.2,1.8-6.9,5c-0.7,1.4-0.7,1.8-1.3,3.4h11.7c0.2-0.9,0.6-2.5,0.6-3.6C67.5,14.1,66,12.5,63.2,12.5z">
  </path>
  <path class="st0" d="M13,49.5H4.1L0,7.9h9.6l1.7,28.2L24.8,7.9h9.8L13,49.5z">
  </path>
  <path class="st0" d="M95.6,14h-5.2l-3.7,17c-0.2,0.5-0.7,3.4,2.4,3.6c0.9,0,2.2-0.2,2.8-0.4c0,0-1.5,6.6-8.3,6.6
		c-5.2,0-7.6-3.8-6.5-9.5l6.3-28.4c0,0,3.5-3.8,10.2-2.7c-1.1,5.4-1.7,7.7-1.7,7.7h5.2L95.6,14z">
  </path>
  <path class="st0" d="M160.1,14h-5.2l-3.7,17c-0.2,0.5-0.7,3.4,2.4,3.6c0.9,0,2.2-0.2,2.8-0.4c0,0-1.5,6.6-8.3,6.6
		c-5.2,0-7.6-3.8-6.5-9.5l6.1-28.1c0,0,3.5-3.8,10.2-2.7c-1.1,5.4-1.7,7.7-1.7,7.7h5.2L160.1,14z">
  </path>
  <path class="st0" d="M139,27h-19.8c-0.2,4.1,1.5,7.2,6.5,7.2c3.5,0,7-1.1,8.9-1.8l0.9,5.9c-2.8,1.3-7,2.3-12,2.3
		c-8.5,0-13.3-4.6-13.3-12.5c0-4.8,1.7-10.2,4.4-13.9c3.3-4.5,8.2-7.2,14.3-7.2c7.4,0,11.7,4.1,11.7,11.4
		C140.5,20.2,139.9,24.1,139,27z M127.7,12.5c-2.8,0-5.2,1.8-6.9,5c-0.7,1.4-0.7,1.8-1.3,3.4h11.7c0.2-0.9,0.6-2.5,0.6-3.6
		C132,14.1,130.3,12.5,127.7,12.5z">
  </path>
  <path class="st0" d="M230,14c-2.2-0.9-4.8-0.9-6.5-0.2l-5.7,26.5h-9.6L215,9.7c4.1-2.1,11.5-3.4,17.2-2.3L230,14z">
  </path>
  <path class="st0" d="M183.3,49.5l0.2-9.3h-13.2l-5.4,9.3h-9.5l25.9-41.7h9.8l1.7,41.7H183.3z M183.7,17.2l-10,17.2h9.8L183.7,17.2z
		">
  </path>
  <path class="st0" d="M86.5,54c-8.5,0-13.3-5.4-12.6-11.1c4.3,4.6,12.2,4.8,16.9,0.7c1.7-1.4,3.2-3.8,4.3-9.3
		c2-9.5,5.7-26.6,5.7-26.6h9.6l-6.7,30.4C101.7,47.9,95.3,54,86.5,54z">
  </path>
  <path class="st0" d="M38.9,40.2h-9.5l7-32.4H46L38.9,40.2z">
  </path>
  <path class="st0" d="M203.9,40.2h-9.6l7-32.4h9.6L203.9,40.2z">
  </path>
  <path class="st0" d="M225.7,40.6c-1.7,0-2.8-1.1-2.8-2.5c0-2,1.9-3.8,3.9-3.8c1.7,0,2.8,1.1,2.8,2.5
		C229.8,38.8,227.8,40.6,225.7,40.6z">
  </path>
  <path class="st0" d="M249.8,20.9c-0.6-0.4-1.5-0.9-2.6-0.9c-1.9,0-3.5,1.1-4.8,3.2c-1.3,2-2,5.2-2,7.5c0,3,1.3,4.5,3.3,4.5
		c1.3,0,2.6-0.4,3.3-0.9l0.6,4.3c-1.1,1.1-3.3,1.8-6.3,1.8c-4.8,0-8.3-3.6-8.3-9.3c0-3.6,1.5-7.9,3.5-10.7c2.4-3.4,6.1-5,9.6-5
		c2.8,0,5.2,1.1,5.9,1.8L249.8,20.9z">
  </path>
  <path class="st0" d="M268.5,35.2c-2.2,3.2-5.9,5.4-10.6,5.4c-5.9,0-8.9-3.6-8.9-8.9c0-3.6,1.3-7.9,3.3-10.7
		c2.4-3.4,5.9-5.4,10.6-5.4c5.9,0,9.1,3.6,9.1,8.8C272.1,27.9,270.6,32.4,268.5,35.2z M262.4,19.9c-1.9,0-3.3,1.4-4.3,3.6
		c-1.1,2.3-2,6.4-2,8.9c0,2.1,0.6,3.4,2.6,3.4c2,0,3.3-1.3,4.3-3.4c1.1-2.3,2-6.4,2-8.9C265,21.3,264.3,19.9,262.4,19.9z">
  </path>
  <path class="st0" d="M310.2,23.4l-3.5,16.8h-7.2l3.7-17.2c0-0.4,0.2-0.5,0.2-0.9c0-1.4-0.9-2.3-3-2.3c-1.3,0-2.6,0.5-3.5,1.3
		l-4.1,19.1h-7.2l3.7-17.2c0-0.4,0.2-0.5,0.2-0.9c0-1.4-1.1-2.3-3.3-2.3c-1.1,0-2.2,0.2-3.2,0.5l-4.3,19.8h-7.2l5-22.9
		c3-1.3,6.5-1.8,10.6-1.8c3.3,0,6.1,1.1,7.2,2.5c1.7-1.3,4.8-2.5,9.1-2.5c5.2,0,7.6,2.5,7.6,6.1C310.4,22.4,310.4,22.9,310.2,23.4z">
  </path>
 </g>
</svg>