<?xml version="1.0" encoding="UTF-8"?>
<svg version="1.1" xmlns="http://www.w3.org/2000/svg" width="306" height="306">
<path d="M0 0 C0.75748535 0.18272461 1.5149707 0.36544922 2.29541016 0.55371094 C26.22602648 6.45520733 48.87897421 17.98956495 66.83984375 34.9609375 C68.85157275 36.85989326 70.9303668 38.61421681 73.0625 40.375 C78.02346537 44.71957288 81.99313017 49.78439111 86 55 C86.7940625 56.01707031 87.588125 57.03414062 88.40625 58.08203125 C113.63347406 91.27020273 122.81238306 133.7388625 117.23144531 174.79418945 C116.64113099 178.24025038 115.86936092 181.6146157 115 185 C114.81727539 185.75748535 114.63455078 186.5149707 114.44628906 187.29541016 C108.54479267 211.22602648 97.01043505 233.87897421 80.0390625 251.83984375 C78.14010674 253.85157275 76.38578319 255.9303668 74.625 258.0625 C70.28042712 263.02346537 65.21560889 266.99313017 60 271 C58.98292969 271.7940625 57.96585938 272.588125 56.91796875 273.40625 C23.72979727 298.63347406 -18.7388625 307.81238306 -59.79418945 302.23144531 C-63.24025038 301.64113099 -66.6146157 300.86936092 -70 300 C-71.13622803 299.72591309 -71.13622803 299.72591309 -72.29541016 299.44628906 C-96.22602648 293.54479267 -118.87897421 282.01043505 -136.83984375 265.0390625 C-138.85157275 263.14010674 -140.9303668 261.38578319 -143.0625 259.625 C-148.02346537 255.28042712 -151.99313017 250.21560889 -156 245 C-156.7940625 243.98292969 -157.588125 242.96585938 -158.40625 241.91796875 C-183.63347406 208.72979727 -192.81238306 166.2611375 -187.23144531 125.20581055 C-186.64113099 121.75974962 -185.86936092 118.3853843 -185 115 C-184.81727539 114.24251465 -184.63455078 113.4850293 -184.44628906 112.70458984 C-178.54479267 88.77397352 -167.01043505 66.12102579 -150.0390625 48.16015625 C-148.14010674 46.14842725 -146.38578319 44.0696332 -144.625 41.9375 C-140.28042712 36.97653463 -135.21560889 33.00686983 -130 29 C-128.98292969 28.2059375 -127.96585938 27.411875 -126.91796875 26.59375 C-92.02156294 0.06805097 -42.80820111 -10.99307316 0 0 Z " fill="#0C3F2F" transform="translate(188,3)"/>
<path d="M0 0 C0.75748535 0.18272461 1.5149707 0.36544922 2.29541016 0.55371094 C26.22602648 6.45520733 48.87897421 17.98956495 66.83984375 34.9609375 C68.85157275 36.85989326 70.9303668 38.61421681 73.0625 40.375 C78.02346537 44.71957288 81.99313017 49.78439111 86 55 C86.7940625 56.01707031 87.588125 57.03414062 88.40625 58.08203125 C113.63347406 91.27020273 122.81238306 133.7388625 117.23144531 174.79418945 C116.64113099 178.24025038 115.86936092 181.6146157 115 185 C114.81727539 185.75748535 114.63455078 186.5149707 114.44628906 187.29541016 C109.89476543 205.75187587 100.6236202 234.91758653 84 246 C83.99945523 245.18516553 83.99891047 244.37033106 83.99834919 243.53080463 C83.98338547 223.70908078 83.94095526 203.88758195 83.86790943 184.06598377 C83.83324819 174.48040532 83.80790242 164.89497085 83.80444336 155.30932617 C83.80140504 146.95499311 83.78093244 138.60091638 83.73947543 130.24668235 C83.71813162 125.82261804 83.70555183 121.39891829 83.71384621 116.97480202 C83.72137774 112.81069909 83.70560091 108.64733535 83.67193985 104.48336792 C83.66369562 102.9551734 83.66396962 101.42690552 83.67340279 99.89871788 C83.68501523 97.81078267 83.66592813 95.72527403 83.63923645 93.63752747 C83.63647107 92.46961576 83.63370569 91.30170404 83.63085651 90.09840107 C82.63951215 85.22949288 79.51374424 83.08091452 75.61010742 80.29345703 C74.37031128 79.53331299 74.37031128 79.53331299 73.10546875 78.7578125 C72.16251953 78.17451172 71.21957031 77.59121094 70.24804688 76.99023438 C69.23806641 76.37470703 68.22808594 75.75917969 67.1875 75.125 C65.01421148 73.78403475 62.84103756 72.44288377 60.66796875 71.1015625 C59.55856934 70.4199707 58.44916992 69.73837891 57.30615234 69.03613281 C52.18757472 65.88379657 47.0944237 62.69116518 42 59.5 C40.00665716 58.25367152 38.013167 57.00757864 36.01953125 55.76171875 C35.03033691 55.14345215 34.04114258 54.52518555 33.02197266 53.88818359 C29.95654409 51.97284796 26.89045623 50.05857159 23.82421875 48.14453125 C6.7885285 37.50819884 6.7885285 37.50819884 -1.46899414 32.29248047 C-3.01136878 31.31843369 -4.55479941 30.34605671 -6.09936523 29.37548828 C-10.17074795 26.81233299 -14.21002672 24.20902526 -18.22265625 21.5546875 C-19.08463623 20.99160889 -19.94661621 20.42853027 -20.8347168 19.84838867 C-22.48872817 18.7669625 -24.13521215 17.6739059 -25.77270508 16.56762695 C-26.51544678 16.08511475 -27.25818848 15.60260254 -28.0234375 15.10546875 C-28.67231934 14.67387451 -29.32120117 14.24228027 -29.98974609 13.79760742 C-32.76010237 12.69841457 -34.17590609 13.09602478 -37 14 C-39.75905109 15.40440253 -39.75905109 15.40440253 -42.578125 17.2109375 C-43.64756348 17.87295166 -44.71700195 18.53496582 -45.81884766 19.21704102 C-46.96272964 19.936099 -48.10644341 20.65542465 -49.25 21.375 C-50.43377402 22.11239248 -51.61785865 22.84928655 -52.80224609 23.58569336 C-59.78256538 27.93568755 -66.71623919 32.35625915 -73.60229492 36.85400391 C-82.60484492 42.72556224 -91.75066723 48.37064077 -100.87402344 54.05175781 C-103.96235129 55.97653571 -107.04808603 57.90539395 -110.1328125 59.8359375 C-111.13618652 60.4637915 -112.13956055 61.09164551 -113.17333984 61.73852539 C-115.16868226 62.9873518 -117.16380272 64.23653292 -119.15869141 65.48608398 C-124.13855956 68.60148884 -129.1289516 71.69769854 -134.140625 74.76171875 C-135.11620361 75.35968262 -136.09178223 75.95764648 -137.09692383 76.57373047 C-138.9508962 77.70858146 -140.80739953 78.83931097 -142.66674805 79.96533203 C-143.48699463 80.46790527 -144.30724121 80.97047852 -145.15234375 81.48828125 C-145.87413818 81.92696533 -146.59593262 82.36564941 -147.33959961 82.81762695 C-149.15164308 83.91231368 -149.15164308 83.91231368 -150 86 C-150.10637173 88.1535474 -150.14669701 90.31044119 -150.15821838 92.46658325 C-150.16315636 93.13799469 -150.16809434 93.80940613 -150.17318195 94.50116336 C-150.18859661 96.76135244 -150.19692825 99.02151302 -150.20532227 101.28173828 C-150.21489768 102.89777885 -150.22490756 104.5138169 -150.23532104 106.12985229 C-150.26241271 110.52627177 -150.28339916 114.92270202 -150.30332303 119.31915903 C-150.32515635 123.91029238 -150.35255799 128.50139234 -150.37937927 133.09249878 C-150.42934213 141.79057549 -150.4742676 150.48867071 -150.51740164 159.18678367 C-150.56674335 169.08751013 -150.62167282 178.9882031 -150.67708123 188.88889718 C-150.79095641 209.25923359 -150.89778337 229.62960197 -151 250 C-175.54496111 225.79572926 -187.97512487 189.05559724 -188.24169922 155.12158203 C-188.32437384 127.94546681 -188.32437384 127.94546681 -185 115 C-184.81727539 114.24251465 -184.63455078 113.4850293 -184.44628906 112.70458984 C-178.54479267 88.77397352 -167.01043505 66.12102579 -150.0390625 48.16015625 C-148.14010674 46.14842725 -146.38578319 44.0696332 -144.625 41.9375 C-140.28042712 36.97653463 -135.21560889 33.00686983 -130 29 C-128.98292969 28.2059375 -127.96585938 27.411875 -126.91796875 26.59375 C-92.02156294 0.06805097 -42.80820111 -10.99307316 0 0 Z " fill="#FCF8EB" transform="translate(188,3)"/>
<path d="M0 0 C1.21659302 0.68763428 1.21659302 0.68763428 2.45776367 1.38916016 C3.24231934 1.82534668 4.026875 2.2615332 4.83520508 2.7109375 C5.65166504 3.21061035 6.468125 3.7102832 7.30932617 4.22509766 C8.23326172 4.7885791 9.15719727 5.35206055 10.10913086 5.93261719 C11.09042969 6.53702637 12.07172852 7.14143555 13.08276367 7.76416016 C14.61658691 8.70364502 14.61658691 8.70364502 16.18139648 9.66210938 C24.89212052 15.01058594 33.54386948 20.4497233 42.16918945 25.93457031 C45.99049448 28.36334515 49.8175542 30.78299506 53.64526367 33.20166016 C54.41064453 33.68546143 55.17602539 34.1692627 55.96459961 34.66772461 C63.60053585 39.48914311 71.25998416 44.27284776 78.92333984 49.05053711 C79.87313721 49.64310303 80.82293457 50.23566895 81.80151367 50.84619141 C82.62844727 51.36157471 83.45538086 51.87695801 84.30737305 52.40795898 C85.34700195 53.06175537 86.38663086 53.71555176 87.45776367 54.38916016 C88.3699617 54.7527916 89.28215973 55.11642303 90.22200012 55.49107361 C93.70291847 57.12051929 95.89802985 58.50049447 98.45776367 61.38916016 C100.48715297 67.48833914 99.73295403 74.34041068 99.53198242 80.66650391 C99.51144968 82.56217425 99.49579931 84.45790322 99.4848175 86.35365295 C99.44294141 91.32828742 99.33501264 96.29935289 99.21307373 101.27258301 C99.10026663 106.35326857 99.05024909 111.43453468 98.99487305 116.51611328 C98.87712295 126.47535842 98.68954866 136.43196183 98.45776367 146.38916016 C94.62323307 145.14812834 91.2631376 143.87072672 87.81323242 141.77978516 C86.97083008 141.27189453 86.12842773 140.76400391 85.26049805 140.24072266 C84.3974707 139.71220703 83.53444336 139.18369141 82.64526367 138.63916016 C81.79383789 138.12611328 80.94241211 137.61306641 80.06518555 137.08447266 C77.51537372 135.53866137 74.97634007 133.98555697 72.45776367 132.38916016 C71.70165802 132.00711426 70.94555237 131.62506836 70.16653442 131.23144531 C63.91123602 127.76262957 63.91123602 127.76262957 62.69596863 124.08184814 C62.46846617 121.25796621 62.52380071 118.56176926 62.67651367 115.73291016 C62.68839722 114.71241577 62.70028076 113.69192139 62.71252441 112.64050293 C62.76460271 108.28872089 62.9220438 103.94219453 63.06958008 99.59277344 C63.16247956 96.40989417 63.20193704 93.22935035 63.23901367 90.04541016 C63.29182495 89.06713257 63.34463623 88.08885498 63.39904785 87.08093262 C63.42878817 84.25905781 63.33866324 82.0730483 62.45776367 79.38916016 C59.79851568 76.68927744 56.82016256 75.08596188 53.45776367 73.38916016 C52.36254395 72.72271484 51.26732422 72.05626953 50.13891602 71.36962891 C49.11749512 70.77794922 48.09607422 70.18626953 47.04370117 69.57666016 C46.4746405 69.24528046 45.90557983 68.91390076 45.3192749 68.57247925 C43.49200233 67.50865278 41.66262159 66.44853266 39.83276367 65.38916016 C32.38390622 61.07392874 24.958661 56.74902183 17.69213867 52.13134766 C16.65653809 51.47779297 15.6209375 50.82423828 14.55395508 50.15087891 C12.618887 48.92210273 10.693444 47.677993 8.77954102 46.41650391 C4.87333422 43.94743845 2.43160233 42.42199771 -2.24926758 42.26416016 C-6.00675593 43.54785725 -9.09670048 45.29939129 -12.35473633 47.51416016 C-19.62617146 52.25793535 -27.06925296 56.64081328 -34.60473633 60.95166016 C-45.61067363 67.26292172 -45.61067363 67.26292172 -56.54223633 73.70166016 C-57.14044189 74.05623291 -57.73864746 74.41080566 -58.35498047 74.77612305 C-60.67941663 76.1728804 -62.61510654 77.46203036 -64.54223633 79.38916016 C-64.69366217 81.39040674 -64.69366217 81.39040674 -64.44848633 83.69262695 C-64.38551865 84.58542862 -64.32255096 85.47823029 -64.25767517 86.39808655 C-64.18658035 87.36838303 -64.11548553 88.3386795 -64.04223633 89.33837891 C-62.29117213 123.02912515 -62.29117213 123.02912515 -68.00366211 129.99804688 C-73.6606443 135.39924926 -81.12449551 138.02015955 -88.46850586 140.32763672 C-92.64359724 141.76951895 -95.88374533 143.94436594 -99.54223633 146.38916016 C-100.20223633 146.38916016 -100.86223633 146.38916016 -101.54223633 146.38916016 C-102.0073675 135.51563789 -102.36180676 124.64450716 -102.57847977 113.76303482 C-102.68253339 108.70854795 -102.82333381 103.66089951 -103.05102539 98.61035156 C-104.48112784 66.04529469 -104.48112784 66.04529469 -99.69290161 58.45922852 C-95.13181926 54.09211774 -89.9412307 51.97050253 -83.96087646 50.17077637 C-80.75176064 49.13370727 -78.20378348 47.49275975 -75.44458008 45.57666016 C-74.61474609 45.04572754 -73.78491211 44.51479492 -72.92993164 43.96777344 C-72.12136719 43.44683105 -71.31280273 42.92588867 -70.47973633 42.38916016 C-68.61920539 41.19882753 -66.75852577 40.00872727 -64.89770508 38.81884766 C-63.99584473 38.24102539 -63.09398437 37.66320312 -62.16479492 37.06787109 C-49.4914229 28.95559163 -36.72419006 21.00187833 -23.87524414 13.17089844 C-22.32015137 12.21932861 -22.32015137 12.21932861 -20.73364258 11.24853516 C-19.20441162 10.31557617 -19.20441162 10.31557617 -17.64428711 9.36376953 C-15.45886813 7.97264182 -13.36118006 6.56688987 -11.2644043 5.05517578 C-10.2101123 4.30429687 -9.15582031 3.55341797 -8.06958008 2.77978516 C-6.6560022 1.73612793 -6.6560022 1.73612793 -5.21386719 0.67138672 C-2.54223633 -0.61083984 -2.54223633 -0.61083984 0 0 Z " fill="#FBF6EA" transform="translate(155.542236328125,35.61083984375)"/>
<path d="M0 0 C4.57269167 1.70468103 8.57366005 4.11161442 12.7265625 6.65625 C14.1331311 7.50074707 14.1331311 7.50074707 15.56811523 8.36230469 C20.62553018 11.40669351 25.65607853 14.49457418 30.68334961 17.58837891 C33.2185251 19.14744232 35.75652618 20.70188101 38.29437256 22.2565918 C40.14059503 23.39182003 41.98081936 24.53633276 43.82080078 25.68164062 C44.96756536 26.38705713 46.11452868 27.09215068 47.26171875 27.796875 C48.26855713 28.42110352 49.27539551 29.04533203 50.31274414 29.68847656 C52.98480853 31.09480162 55.12765275 31.75224717 58.1015625 32.15625 C54.52901929 34.53794547 50.83028728 35.7574104 46.7890625 37.09375 C45.98742676 37.35953857 45.18579102 37.62532715 44.35986328 37.89916992 C19.34926805 46.00164867 -11.25851233 47.74053913 -36.8984375 41.15625 C-37.65592285 40.97352539 -38.4134082 40.79080078 -39.19384766 40.60253906 C-64.1982563 34.43623622 -87.42282538 22.1433243 -105.8984375 4.15625 C-101.68110087 4.15625 -98.90775831 6.28460309 -95.3984375 8.40625 C-94.28577515 9.06983521 -94.28577515 9.06983521 -93.15063477 9.74682617 C-85.77125052 14.17537982 -78.49621299 18.77042509 -71.23828125 23.39453125 C-70.51495605 23.85166504 -69.79163086 24.30879883 -69.04638672 24.77978516 C-67.59791623 25.70800482 -66.16207954 26.65620093 -64.73876953 27.62255859 C-61.96480898 29.46948529 -59.6409142 30.97985414 -56.3828125 31.75390625 C-52.49375575 30.81833128 -49.48177193 28.75447967 -46.1484375 26.59375 C-44.55303127 25.58833798 -42.95661657 24.58452502 -41.359375 23.58203125 C-40.49280273 23.03498535 -39.62623047 22.48793945 -38.73339844 21.92431641 C-33.45891487 18.6348047 -28.11130958 15.46646302 -22.7734375 12.28125 C-20.68698989 11.03470758 -18.6010305 9.78734754 -16.515625 8.5390625 C-15.54979492 7.96575195 -14.58396484 7.39244141 -13.58886719 6.80175781 C-11.89566734 5.76617097 -10.22493125 4.69194967 -8.59082031 3.56542969 C-3.69831911 0.1993703 -3.69831911 0.1993703 0 0 Z " fill="#FBF6EA" transform="translate(154.8984375,261.84375)"/>
<path d="M0 0 C1.49804744 0.74369565 2.97080141 1.53945994 4.421875 2.37109375 C5.27563721 2.85868164 6.12939941 3.34626953 7.0090332 3.84863281 C7.91355225 4.37295898 8.81807129 4.89728516 9.75 5.4375 C10.67707764 5.97084961 11.60415527 6.50419922 12.55932617 7.05371094 C20.83047889 11.84096463 28.94897815 16.85281206 37 22 C33.09703685 25.28569825 29.02582627 27.92163423 24.65234375 30.51171875 C23.95863174 30.92541214 23.26491974 31.33910553 22.55018616 31.76533508 C21.09148037 32.63363896 19.63161465 33.49999686 18.1706543 34.36450195 C15.93727831 35.68763134 13.70971658 37.02018082 11.48242188 38.35351562 C10.06023728 39.19849162 8.6377224 40.04291201 7.21484375 40.88671875 C6.55121323 41.28461105 5.8875827 41.68250336 5.20384216 42.092453 C2.17316348 43.87626216 -0.51590379 45.42222802 -4 46 C-6.43505859 44.95532227 -6.43505859 44.95532227 -9.1484375 43.31640625 C-10.14810547 42.72166504 -11.14777344 42.12692383 -12.17773438 41.51416016 C-13.23283203 40.8701123 -14.28792969 40.22606445 -15.375 39.5625 C-17.53880063 38.26909305 -19.7028622 36.97612255 -21.8671875 35.68359375 C-22.91616211 35.05179199 -23.96513672 34.41999023 -25.04589844 33.76904297 C-28.83403289 31.50054526 -32.65790713 29.30046228 -36.5 27.125 C-37.5828125 26.50882813 -38.665625 25.89265625 -39.78125 25.2578125 C-40.87953125 24.63519531 -40.87953125 24.63519531 -42 24 C-42 23.34 -42 22.68 -42 22 C-40.44970703 20.84594727 -40.44970703 20.84594727 -38.2578125 19.56640625 C-37.04158203 18.84747192 -37.04158203 18.84747192 -35.80078125 18.11401367 C-34.91777344 17.60201416 -34.03476563 17.09001465 -33.125 16.5625 C-31.29356614 15.48817958 -29.4628526 14.41263039 -27.6328125 13.3359375 C-26.22950684 12.51174316 -26.22950684 12.51174316 -24.79785156 11.67089844 C-22.10566147 10.06310184 -19.45102079 8.4085626 -16.8046875 6.7265625 C-15.59014893 5.95977173 -15.59014893 5.95977173 -14.35107422 5.17749023 C-12.80767871 4.19936533 -11.26999659 3.21215444 -9.73876953 2.21508789 C-9.04122559 1.77672607 -8.34368164 1.33836426 -7.625 0.88671875 C-6.71621094 0.30216919 -6.71621094 0.30216919 -5.7890625 -0.29418945 C-3.41479107 -1.23087323 -2.37256741 -0.88674566 0 0 Z " fill="#FAF6EA" transform="translate(157,97)"/>
<path d="M0 0 C0.32311734 5.26470957 0.55794105 10.52358984 0.71411133 15.79589844 C0.77921984 17.58533237 0.86775157 19.37408143 0.98071289 21.16113281 C1.70280462 32.88450439 1.70280462 32.88450439 0 38 C-3.72878469 42.07763225 -7.97714441 43.85361798 -13 46 C-15.15575907 47.23917131 -17.29463613 48.50825743 -19.4140625 49.80859375 C-21.48343404 51.0198382 -23.5537422 52.22948394 -25.625 53.4375 C-26.68589844 54.06076172 -27.74679688 54.68402344 -28.83984375 55.32617188 C-29.85433594 55.91849609 -30.86882812 56.51082031 -31.9140625 57.12109375 C-32.8210791 57.6514624 -33.7280957 58.18183105 -34.66259766 58.72827148 C-37 60 -37 60 -40 61 C-43.79801435 27.51417351 -43.79801435 27.51417351 -37.87011719 18.90771484 C-32.31830176 14.14773531 -25.84725346 11.54552383 -19.00976562 9.12451172 C-14.89761852 7.5881271 -11.32981759 5.44852402 -7.625 3.125 C-2.25104603 0 -2.25104603 0 0 0 Z " fill="#FAF5EA" transform="translate(146,209)"/>
<path d="M0 0 C15.75 9 15.75 9 21.0546875 12.0625 C22.07546387 12.65160156 23.09624023 13.24070313 24.14794922 13.84765625 C25.37787598 14.55792969 26.60780273 15.26820313 27.875 16 C31.87625 18.31 35.8775 20.62 40 23 C40 35.21 40 47.42 40 60 C35.91023993 58.36409597 32.42814993 56.62953169 28.6328125 54.4453125 C27.73609329 53.93108231 27.73609329 53.93108231 26.82125854 53.40646362 C24.92073799 52.31568509 23.02283491 51.22044325 21.125 50.125 C19.85824558 49.39683495 18.59131999 48.66896761 17.32421875 47.94140625 C14.97695364 46.59314977 12.630912 45.2428495 10.28564453 43.89111328 C6.86126496 41.92014849 3.430503 39.96028743 0 38 C0 25.46 0 12.92 0 0 Z " fill="#FAF6EA" transform="translate(163,210)"/>
<path d="M0 0 C3.02886692 1.35792995 5.90849823 2.93580187 8.78027344 4.59301758 C9.41829895 4.9594487 10.05632446 5.32587982 10.71368408 5.70341492 C12.0566828 6.47817044 13.39802274 7.25580761 14.73779297 8.03613281 C16.79477817 9.22908662 18.86321755 10.4002815 20.93261719 11.5715332 C22.23676442 12.32738174 23.54017666 13.08450017 24.84277344 13.84301758 C25.46456482 14.19108963 26.0863562 14.53916168 26.72698975 14.89778137 C28.44726562 15.91845703 28.44726562 15.91845703 31.04589844 17.91723633 C31.04589844 19.23723633 31.04589844 20.55723633 31.04589844 21.91723633 C30.46735107 22.24409424 29.88880371 22.57095215 29.29272461 22.90771484 C26.60456593 24.42871359 23.91872866 25.95374948 21.23339844 27.47973633 C20.27248291 28.02460693 19.31156738 28.56947754 18.3215332 29.13085938 C12.4085922 32.50389274 6.67175401 35.98375186 1.10449219 39.90551758 C-1.50569014 41.18832066 -2.23699027 40.82283777 -4.95410156 39.91723633 C-6.5229275 39.12696567 -8.06579983 38.28412672 -9.58691406 37.40551758 C-10.47636719 36.8944043 -11.36582031 36.38329102 -12.28222656 35.85668945 C-13.66667969 35.05134766 -13.66667969 35.05134766 -15.07910156 34.22973633 C-15.97886719 33.71217773 -16.87863281 33.19461914 -17.80566406 32.66137695 C-19.61515207 31.61754156 -21.42149441 30.56823369 -23.22460938 29.51342773 C-25.09857366 28.41754415 -26.97849138 27.33179703 -28.86328125 26.25463867 C-29.77754883 25.72435059 -30.69181641 25.1940625 -31.63378906 24.64770508 C-32.46378418 24.17099365 -33.2937793 23.69428223 -34.14892578 23.203125 C-34.74463379 22.77878174 -35.3403418 22.35443848 -35.95410156 21.91723633 C-35.95410156 21.25723633 -35.95410156 20.59723633 -35.95410156 19.91723633 C-34.00885865 18.54973325 -32.08088597 17.31917393 -30.04003906 16.10864258 C-29.43277985 15.74125473 -28.82552063 15.37386688 -28.19985962 14.99534607 C-26.90889305 14.21614202 -25.61580108 13.44045037 -24.32080078 12.66796875 C-22.35421147 11.49471671 -20.39389543 10.31155554 -18.43457031 9.1262207 C-17.17841885 8.36976493 -15.92191886 7.61388757 -14.66503906 6.85864258 C-14.08354095 6.5085463 -13.50204285 6.15845001 -12.90292358 5.79774475 C-2.95989702 -0.12536295 -2.95989702 -0.12536295 0 0 Z " fill="#F9F5EA" transform="translate(213.9541015625,178.082763671875)"/>
<path d="M0 0 C3.73013505 1.39257249 7.06334723 3.09747586 10.4921875 5.1171875 C11.52730469 5.72433594 12.56242187 6.33148438 13.62890625 6.95703125 C14.70011719 7.58996094 15.77132812 8.22289062 16.875 8.875 C18.99725794 10.12263042 21.11965036 11.37003213 23.2421875 12.6171875 C24.1791748 13.17003418 25.11616211 13.72288086 26.08154297 14.29248047 C29.37390077 16.21876042 32.68811338 18.10749336 36 20 C36 32.54 36 45.08 36 58 C32.46175031 56.58470012 29.85751339 55.41885815 26.7421875 53.42578125 C25.95634277 52.92602783 25.17049805 52.42627441 24.36083984 51.91137695 C23.5405127 51.38374756 22.72018555 50.85611816 21.875 50.3125 C21.03275879 49.77520264 20.19051758 49.23790527 19.32275391 48.68432617 C17.64770919 47.61541916 15.97369207 46.54489988 14.30078125 45.47265625 C12.31918304 44.20429882 10.33350892 42.94299709 8.34375 41.6875 C1.13392857 37.13392857 1.13392857 37.13392857 0 36 C-0.08855161 33.3337397 -0.11524673 30.69352886 -0.09765625 28.02734375 C-0.0962413 27.22970108 -0.09482635 26.43205841 -0.09336853 25.61024475 C-0.08775316 23.05262565 -0.07519812 20.49509282 -0.0625 17.9375 C-0.05748698 16.20768355 -0.05292373 14.47786574 -0.04882812 12.74804688 C-0.03777875 8.49866447 -0.02050386 4.24934688 0 0 Z " fill="#F7F3E8" transform="translate(54,211)"/>
<path d="M0 0 C0.78383057 0.44384033 1.56766113 0.88768066 2.37524414 1.3449707 C3.04499268 1.7164624 3.71474121 2.0879541 4.40478516 2.47070312 C5.05632568 2.87651611 5.70786621 3.2823291 6.37915039 3.70043945 C7.48250732 4.3823938 7.48250732 4.3823938 8.6081543 5.078125 C9.37691895 5.55805908 10.14568359 6.03799316 10.93774414 6.5324707 C12.54001732 7.52301131 14.1428842 8.5125922 15.74633789 9.5012207 C16.52992676 9.98461914 17.31351563 10.46801758 18.12084961 10.96606445 C22.8234191 13.84240325 27.59558955 16.59901228 32.37524414 19.3449707 C29.43069279 22.54695723 26.4869129 24.61817678 22.69165039 26.7277832 C21.59916992 27.33750977 20.50668945 27.94723633 19.38110352 28.57543945 C18.24479492 29.20063477 17.10848633 29.82583008 15.93774414 30.4699707 C14.80530273 31.10290039 13.67286133 31.73583008 12.50610352 32.38793945 C1.83756988 38.31001293 1.83756988 38.31001293 -1.62475586 39.3449707 C-4.32162786 38.05342425 -6.50193397 36.77596297 -8.93725586 35.0949707 C-10.3496544 34.16473352 -11.76242665 33.23506356 -13.17553711 32.3059082 C-13.90208496 31.81960937 -14.62863281 31.33331055 -15.37719727 30.83227539 C-19.07765603 28.38352514 -22.85342057 26.05742397 -26.62475586 23.7199707 C-27.97928131 22.87419086 -29.33348172 22.02789009 -30.68725586 21.1809082 C-31.65663086 20.57504883 -32.62600586 19.96918945 -33.62475586 19.3449707 C-28.51139082 15.12808947 -23.01995454 11.60896492 -17.41381836 8.09741211 C-16.21624002 7.3427155 -15.02352276 6.5802522 -13.83569336 5.81030273 C-12.10939476 4.691916 -10.36950945 3.59833943 -8.62475586 2.5090332 C-7.07788086 1.52604248 -7.07788086 1.52604248 -5.49975586 0.52319336 C-2.62475586 -0.6550293 -2.62475586 -0.6550293 0 0 Z " fill="#FAF5EA" transform="translate(97.624755859375,177.655029296875)"/>
<path d="M0 0 C0 10.23 0 20.46 0 31 C-3.155625 32.794375 -6.31125 34.58875 -9.5625 36.4375 C-16.88998428 40.61313882 -24.17734844 44.84295964 -31.37915039 49.23217773 C-34.20346375 50.94899736 -37.03356022 52.54488574 -40 54 C-41.68140971 43.82914785 -43.24333532 32.97154468 -40 23 C-33.94864854 15.79274539 -25.00504003 12.19099962 -16.51757812 8.578125 C-11.85670708 6.48707347 -7.58944418 3.95433321 -3.22167969 1.30273438 C-1 0 -1 0 0 0 Z " fill="#FBF6EB" transform="translate(203,134)"/>
<path d="M0 0 C0.66 0 1.32 0 2 0 C5.00027629 29.16219971 5.00027629 29.16219971 0.36083984 36.64306641 C-3.92663409 40.66724815 -9.04870708 42.84367314 -14.48095703 44.94384766 C-18.34114169 46.56229685 -21.63782662 48.87131998 -25.0625 51.25 C-30.67847237 55 -30.67847237 55 -33 55 C-37.36287107 29.98690506 -37.36287107 29.98690506 -33 20 C-26.24386543 11.19797102 -14.00955984 6.47992118 -4.05102539 2.30224609 C-1.17416811 1.29842246 -1.17416811 1.29842246 0 0 Z " fill="#F9F4E9" transform="translate(252,214)"/>
<path d="M0 0 C13.36451298 7.61271412 26.67981505 15.30999632 40 23 C40 32.9 40 42.8 40 53 C36.20354164 51.48141666 32.9299355 49.93901972 29.39453125 47.953125 C28.32783203 47.355 27.26113281 46.756875 26.16210938 46.140625 C25.05673828 45.51671875 23.95136719 44.8928125 22.8125 44.25 C21.72646484 43.6415625 20.64042969 43.033125 19.52148438 42.40625 C17.36553198 41.19425514 15.22006025 39.96341185 13.0859375 38.71337891 C10.07065665 36.96012914 10.07065665 36.96012914 6.9921875 35.76708984 C4.0252121 34.44405028 2.147341 33.44949536 0 31 C-1.226511 25.6628422 -0.94656659 20.53702633 -0.625 15.125 C-0.57479471 13.65900548 -0.52917493 12.19284631 -0.48828125 10.7265625 C-0.37850666 7.14760083 -0.20625348 3.57484883 0 0 Z " fill="#FAF6EB" transform="translate(106,134)"/>
<path d="M0 0 C0.66 0 1.32 0 2 0 C2 27.06 2 54.12 2 82 C2.66 82.33 3.32 82.66 4 83 C2.02 83.99 2.02 83.99 0 85 C0 56.95 0 28.9 0 0 Z " fill="#F2EEE9" transform="translate(54,97)"/>
<path d="M0 0 C0.66 0.33 1.32 0.66 2 1 C-9.36904541 10.61391628 -22.12352308 19.39453051 -36 25 C-36.66 24.67 -37.32 24.34 -38 24 C-36.83723958 23.265625 -35.67447917 22.53125 -34.51171875 21.796875 C-33.37077759 21.07600708 -33.37077759 21.07600708 -32.20678711 20.34057617 C-30.51425394 19.27197906 -28.82104656 18.20444912 -27.12719727 17.13793945 C-22.59455628 14.28185223 -18.07497151 11.40826723 -13.578125 8.49609375 C-12.71614502 7.94147461 -11.85416504 7.38685547 -10.96606445 6.81542969 C-9.29638856 5.74046601 -7.63075546 4.65919365 -5.96948242 3.57128906 C-5.21513916 3.08756836 -4.4607959 2.60384766 -3.68359375 2.10546875 C-3.01900146 1.67387451 -2.35440918 1.24228027 -1.66967773 0.79760742 C-1.11868408 0.53439697 -0.56769043 0.27118652 0 0 Z " fill="#F4F2EA" transform="translate(251,269)"/>
<path d="M0 0 C4.88036541 1.67491831 8.99152948 4.36791961 13.3125 7.125 C14.05306641 7.59292969 14.79363281 8.06085938 15.55664062 8.54296875 C17.37341968 9.69164196 19.18703037 10.84532369 21 12 C20.01 12.495 20.01 12.495 19 13 C17.02880859 12.10375977 17.02880859 12.10375977 14.6484375 10.69140625 C13.79765625 10.19189453 12.946875 9.69238281 12.0703125 9.17773438 C11.18085937 8.64470703 10.29140625 8.11167969 9.375 7.5625 C8.4778125 7.03333984 7.580625 6.50417969 6.65625 5.95898438 C4.43316461 4.646418 2.21477355 3.32652747 0 2 C0.04416275 7.05435088 0.11400429 12.10745366 0.20751953 17.16113281 C0.23572067 18.87978169 0.25693954 20.59856005 0.27099609 22.31738281 C0.29243833 24.79038747 0.33909156 27.26183675 0.390625 29.734375 C0.39185364 30.50118591 0.39308228 31.26799683 0.39434814 32.05804443 C0.49442271 35.71439511 0.70084752 37.63061048 3.03808594 40.51660156 C3.68551758 41.00612305 4.33294922 41.49564453 5 42 C3.02 41.34 1.04 40.68 -1 40 C-1.02464775 34.46411467 -1.04283496 28.928261 -1.05493164 23.39233398 C-1.05997244 21.5075627 -1.06680498 19.62279535 -1.07543945 17.73803711 C-1.08751617 15.03498364 -1.09323068 12.33198169 -1.09765625 9.62890625 C-1.10281754 8.78099014 -1.10797882 7.93307404 -1.11329651 7.0594635 C-1.11349195 5.03928932 -1.06206211 3.01922066 -1 1 C-0.67 0.67 -0.34 0.34 0 0 Z " fill="#1C342A" transform="translate(54,209)"/>
<path d="M0 0 C0.66 0.33 1.32 0.66 2 1 C0.45025019 2.34813187 -1.11537065 3.6780343 -2.6875 5 C-3.99267578 6.11375 -3.99267578 6.11375 -5.32421875 7.25 C-8.23583033 9.15423648 -9.60146088 9.39190361 -13 9 C-9.00302635 5.62755348 -4.72909821 2.28625278 0 0 Z " fill="#EBEAE5" transform="translate(251,269)"/>
</svg>
