<?xml version="1.0" encoding="UTF-8"?>
<svg version="1.1" xmlns="http://www.w3.org/2000/svg" width="187" height="116">
<path d="M0 0 C0.92683594 -0.00257812 1.85367188 -0.00515625 2.80859375 -0.0078125 C5.49498328 0.12174387 7.93725913 0.56559465 10.5625 1.125 C12.2287553 1.1620279 13.89651319 1.17259962 15.5625 1.125 C16.0575 4.59 16.0575 4.59 16.5625 8.125 C17.42875 7.17625 18.295 6.2275 19.1875 5.25 C23.50138127 0.99631242 27.47217115 0.04053245 33.4375 -0.1875 C40.00010425 -0.01973418 44.5071896 1.41224133 49.5625 5.625 C52.25967081 9.28218076 52.20014613 13.08867915 51.984375 17.5 C51.19565521 22.40758983 49.00116908 25.08196492 45.0625 27.9375 C38.80134841 30.91154701 31.87793979 31.13841447 25.3125 28.9375 C21.51666954 27.35843453 19.23438616 25.21436837 16.5625 22.125 C16.2325 24.435 15.9025 26.745 15.5625 29.125 C13.57682292 29.09244792 11.59114583 29.05989583 9.60546875 29.02734375 C7.35944539 29.04236783 7.35944539 29.04236783 4.5625 30.125 C-3.02342522 30.90304361 -9.00663901 29.43710197 -15.3125 25.1875 C-18.76131313 21.84012255 -19.34346919 20.09665174 -19.8125 15.25 C-19.68312158 10.89965059 -18.30862239 8.4494575 -15.4375 5.125 C-10.2015241 1.08893524 -6.50141395 -0.01803444 0 0 Z M-5.4375 6.125 C-8.53150314 10.49928031 -8.83439164 13.94155423 -7.99609375 19.06640625 C-7.13424188 22.24260161 -6.31167081 23.47235178 -3.4375 25.125 C-0.3058117 25.73377679 2.43658131 25.78689381 5.5625 25.125 C8.67111514 22.93645577 8.67111514 22.93645577 10.5625 20.125 C10.5625 19.465 10.5625 18.805 10.5625 18.125 C12.2125 18.125 13.8625 18.125 15.5625 18.125 C15.5625 15.815 15.5625 13.505 15.5625 11.125 C14.2425 11.125 12.9225 11.125 11.5625 11.125 C10.18767293 9.49239286 8.85602333 7.82274938 7.5625 6.125 C3.3787718 3.29086154 -1.30369979 3.09354651 -5.4375 6.125 Z M27.5625 7.125 C25.0423003 12.05084486 25.37873729 15.88262227 26.5625 21.125 C28.38903194 23.58137054 29.77036256 24.74170769 32.5 26.0625 C35.59872318 26.1564007 37.13615349 24.9766855 39.5625 23.125 C41.35489416 20.226266 41.83570923 18.01354772 41.8125 14.625 C41.81765625 13.8721875 41.8228125 13.119375 41.828125 12.34375 C41.53033654 9.85634052 40.87103027 8.25193966 39.5625 6.125 C34.95626568 3.15323592 31.81439087 3.85431471 27.5625 7.125 Z " fill="#007094" transform="translate(135.4375,52.875)"/>
<path d="M0 0 C1.01320312 0.03158203 2.02640625 0.06316406 3.0703125 0.09570312 C5.54814394 0.17751831 8.02446645 0.30305292 10.5 0.4375 C10.5 5.3875 10.5 10.3375 10.5 15.4375 C5.58635872 17.89432064 1.90226338 18.02359461 -3.5 17.4375 C-7.125 15.9375 -7.125 15.9375 -9.5 14.4375 C-8.83786039 21.14406268 -8.83786039 21.14406268 -5.3125 26.5625 C-1.81321933 27.6511651 0.8537549 27.83527219 4.5 27.4375 C6.78484306 26.03792803 6.78484306 26.03792803 8.5 24.4375 C9.16 24.4375 9.82 24.4375 10.5 24.4375 C10.5 30.0475 10.5 35.6575 10.5 41.4375 C3.84997377 44.09751049 -2.90407402 44.67944116 -9.9140625 42.78515625 C-15.68454223 40.18955436 -19.90022082 35.74663227 -22.640625 30.078125 C-24.59372352 24.07678591 -24.56744554 16.94151379 -22 11.125 C-16.29446113 2.0339533 -10.56940561 -0.6311128 0 0 Z " fill="#007094" transform="translate(130.5,-0.4375)"/>
<path d="M0 0 C6.6 0 13.2 0 20 0 C19.46375 1.464375 18.9275 2.92875 18.375 4.4375 C16.75122267 9.85264421 17.0337713 13.73624191 19 19 C19.53625 19.94875 20.0725 20.8975 20.625 21.875 C22.64299408 26.46135018 22.8789751 31.07220259 22 36 C20.67578125 39.2890625 20.67578125 39.2890625 18 42 C14.2551427 42.88870095 10.58556635 42.88473494 6.75 42.875 C5.71875 42.895625 4.6875 42.91625 3.625 42.9375 C1.08252715 42.98458283 -1.45718042 43.00444327 -4 43 C-3.690625 42.401875 -3.38125 41.80375 -3.0625 41.1875 C-1.89790296 38.91043228 -1.89790296 38.91043228 -1 36 C-1.515625 36.969375 -2.03125 37.93875 -2.5625 38.9375 C-4.79852533 41.73253166 -6.05552619 42.0093922 -9.671875 42.62109375 C-13.44652184 42.91360071 -17.2149754 42.99047793 -21 43 C-19.75452186 39.26356558 -18.17097481 38.89372408 -14.84375 37.09375 C-9.92982265 34.17870835 -7.12545565 30.20736635 -5 25 C-4.62406934 23.0075675 -4.28020455 21.0081326 -4 19 C-3.67 18.67 -3.34 18.34 -3 18 C-3.33 17.01 -3.66 16.02 -4 15 C-4.6592322 8.27583154 -3.37050205 6.74100409 0 0 Z M-1 22 C0 24 0 24 0 24 Z " fill="#006F94" transform="translate(56,0)"/>
<path d="M0 0 C5.32902693 2.10549609 7.32235549 8.04919625 9.55078125 13.0078125 C11.88231121 10.1717708 14.03272968 7.41569215 15.80078125 4.1953125 C16.37828125 3.1434375 16.95578125 2.0915625 17.55078125 1.0078125 C21.18078125 1.0078125 24.81078125 1.0078125 28.55078125 1.0078125 C27.15859375 2.52375 27.15859375 2.52375 25.73828125 4.0703125 C19.77359466 11.17717312 19.21963988 16.44683378 19.25 25.60546875 C19.41023346 29.02756192 19.41023346 29.02756192 20.66796875 32.16796875 C21.55078125 35.0078125 21.55078125 35.0078125 21.109375 37.34375 C19.77949652 39.76255337 18.73089392 41.2855655 16.55078125 43.0078125 C12.02092311 44.17643491 8.00512726 44.50729531 3.55078125 43.0078125 C1.44696027 40.57756976 0.05093195 37.83749203 -1.44921875 35.0078125 C-2.33501941 33.54834735 -3.22699894 32.09261516 -4.125 30.640625 C-5.00618099 29.13935369 -5.88507752 27.63673924 -6.76171875 26.1328125 C-7.21611328 25.39417969 -7.67050781 24.65554687 -8.13867188 23.89453125 C-11.39183289 18.2491962 -12.32324886 13.49775361 -11.44921875 7.0078125 C-9.20584844 1.09347259 -6.06945845 -0.26975371 0 0 Z " fill="#007094" transform="translate(86.44921875,-1.0078125)"/>
<path d="M0 0 C3.03717884 2.22774202 4.98825421 4.87885217 6.65625 8.21484375 C7.05956428 13.45792944 6.51676133 16.77611928 3.65625 21.21484375 C-0.83225175 25.58203464 -5.03357357 27.0285392 -11.21875 27.52734375 C-17.13561786 27.34633058 -21.71429658 25.59633687 -26.21875 21.77734375 C-28.57026352 18.9416951 -30.23135442 16.79990968 -30.49609375 13.06640625 C-29.94761519 7.38217387 -28.71109978 4.20242398 -24.34375 0.21484375 C-16.76422248 -4.33287276 -7.69395069 -4.43032816 0 0 Z M-17.34375 3.21484375 C-20.07204277 7.67040101 -19.99137464 12.14041776 -19.34375 17.21484375 C-18.01358836 20.44323148 -18.01358836 20.44323148 -15.34375 22.21484375 C-11.84375 22.96484375 -11.84375 22.96484375 -8.34375 22.21484375 C-5.4950333 20.05672504 -4.46156099 18.89759092 -3.84765625 15.33984375 C-3.87666016 13.79296875 -3.87666016 13.79296875 -3.90625 12.21484375 C-3.90753906 11.18359375 -3.90882812 10.15234375 -3.91015625 9.08984375 C-4.39230395 5.89290047 -5.08963738 4.50085419 -7.34375 2.21484375 C-11.29109591 1.03903859 -13.96444707 0.68036655 -17.34375 3.21484375 Z " fill="#007094" transform="translate(58.34375,55.78515625)"/>
<path d="M0 0 C1.28197266 -0.00386719 1.28197266 -0.00386719 2.58984375 -0.0078125 C5.0625 0.125 5.0625 0.125 7.12890625 0.6953125 C9.41305024 1.35413874 9.41305024 1.35413874 13.0625 0.125 C13.0625 3.755 13.0625 7.385 13.0625 11.125 C8.0625 10.125 8.0625 10.125 5.75 7.5625 C2.85004436 4.93230768 2.42057127 4.78665091 -1.25 4.8125 C-2.466875 4.915625 -3.68375 5.01875 -4.9375 5.125 C-4.04729669 7.47582384 -4.04729669 7.47582384 -0.91796875 8.23828125 C1.60133366 9.03480632 4.12216507 9.82651211 6.64453125 10.61328125 C10.40912952 12.27830928 11.90421188 13.66219375 14.0625 17.125 C14.6875 20.625 14.6875 20.625 14.0625 24.125 C9.53776176 28.85540816 6.68155574 30.03621845 0.375 30.25 C-4.10680588 30.19935813 -8.49265572 29.68060553 -12.9375 29.125 C-12.9375 25.495 -12.9375 21.865 -12.9375 18.125 C-11.6175 18.125 -10.2975 18.125 -8.9375 18.125 C-8.2775 20.105 -7.6175 22.085 -6.9375 24.125 C-5.31262529 24.29288373 -3.68759558 24.45926787 -2.0625 24.625 C-0.70511719 24.76421875 -0.70511719 24.76421875 0.6796875 24.90625 C2.99563211 25.15547295 2.99563211 25.15547295 5.0625 25.125 C4.7325 24.135 4.4025 23.145 4.0625 22.125 C1.44439133 20.8306977 1.44439133 20.8306977 -1.6875 19.75 C-9.99196927 16.43809856 -9.99196927 16.43809856 -12.9375 12.125 C-13.5625 9.125 -13.5625 9.125 -12.9375 6.125 C-8.99765972 1.33330237 -6.08122297 -0.01828939 0 0 Z " fill="#007094" transform="translate(12.9375,52.875)"/>
<path d="M0 0 C6.6 0 13.2 0 20 0 C20 1.32 20 2.64 20 4 C19.01 4.33 18.02 4.66 17 5 C19.475 10.445 19.475 10.445 22 16 C23.58971965 13.61542052 24.86741593 11.3695876 26.125 8.8125 C26.47820312 8.09707031 26.83140625 7.38164063 27.1953125 6.64453125 C27.46085937 6.10183594 27.72640625 5.55914062 28 5 C26.68 4.67 25.36 4.34 24 4 C24 2.68 24 1.36 24 0 C28.29 0 32.58 0 37 0 C37 1.32 37 2.64 37 4 C36.01 4.33 35.02 4.66 34 5 C32.56926819 7.36987986 32.56926819 7.36987986 31.3359375 10.3125 C30.85382813 11.38757813 30.37171875 12.46265625 29.875 13.5703125 C29.38 14.70210937 28.885 15.83390625 28.375 17 C27.38449179 19.22991335 26.39239106 21.45912024 25.3984375 23.6875 C24.96192871 24.68136719 24.52541992 25.67523438 24.07568359 26.69921875 C23 29 23 29 22 30 C20.00041636 30.04080783 17.99954746 30.04254356 16 30 C15.65743164 29.2479126 15.31486328 28.4958252 14.96191406 27.72094727 C13.40619407 24.32772343 11.8284696 20.94519706 10.25 17.5625 C9.71117188 16.37849609 9.17234375 15.19449219 8.6171875 13.97460938 C8.08867188 12.84990234 7.56015625 11.72519531 7.015625 10.56640625 C6.29294434 9.00321655 6.29294434 9.00321655 5.55566406 7.40844727 C4.23335138 4.84405707 4.23335138 4.84405707 1.81152344 4.15209961 C1.2137207 4.10190674 0.61591797 4.05171387 0 4 C0 2.68 0 1.36 0 0 Z " fill="#007094" transform="translate(61,53)"/>
<path d="M0 0 C2.75105422 -0.10812003 5.49785087 -0.18734945 8.25 -0.25 C9.02730469 -0.28351563 9.80460937 -0.31703125 10.60546875 -0.3515625 C16.37814713 -0.45024076 16.37814713 -0.45024076 19.51953125 1.82421875 C21.51266514 4.7534419 21.51703111 6.52850537 21 10 C19.5 11.875 19.5 11.875 18 13 C19.0079347 16.02380411 19.84747282 17.84747282 22.125 20.125 C24 22 24 22 24 25 C20.75 25.3125 20.75 25.3125 17 25 C14.6875 22.6875 14.6875 22.6875 13 20 C12.34 19.01 11.68 18.02 11 17 C10.67 18.32 10.34 19.64 10 21 C10.99 21 11.98 21 13 21 C13 22.32 13 23.64 13 25 C8.71 25 4.42 25 0 25 C0 23.68 0 22.36 0 21 C0.99 21 1.98 21 3 21 C3 15.06 3 9.12 3 3 C2.01 3 1.02 3 0 3 C0 2.01 0 1.02 0 0 Z M10 3 C10 5.64 10 8.28 10 11 C11.32 10.67 12.64 10.34 14 10 C14 8.02 14 6.04 14 4 C12.68 3.67 11.36 3.34 10 3 Z " fill="#D8B66B" transform="translate(58,91)"/>
<path d="M0 0 C5.94 0 11.88 0 18 0 C18 1.32 18 2.64 18 4 C16.68 4 15.36 4 14 4 C14 11.26 14 18.52 14 26 C15.32 26.33 16.64 26.66 18 27 C18 27.99 18 28.98 18 30 C12.06 30 6.12 30 0 30 C0 28.68 0 27.36 0 26 C0.99 26 1.98 26 3 26 C3 18.74 3 11.48 3 4 C2.01 4 1.02 4 0 4 C0 2.68 0 1.36 0 0 Z " fill="#007094" transform="translate(100,53)"/>
<path d="M0 0 C3.43761572 2.12108204 5.77560839 4.1042085 7 8 C7.48365156 13.22343681 6.92346277 16.61480585 4 21 C-0.10250181 24.71178736 -3.43813789 25.64457359 -8.81640625 25.390625 C-12.26689774 24.77336355 -14.39783154 23.28483085 -17 21 C-19.56710211 16.78324808 -19.66843045 12.81269927 -19 8 C-17.21413657 4.29089903 -15.63776905 2.45978699 -12.3125 0.0625 C-7.92156804 -1.34591214 -4.4347481 -1.21096443 0 0 Z M-10.8125 5.0625 C-12.77119941 9.90770381 -12.55408161 13.50397966 -10.75 18.375 C-9.25674871 21.05360508 -9.25674871 21.05360508 -7.0625 22.0625 C-4.13106239 21.97366856 -3.07551768 21.04135278 -1 19 C-0.40256046 16.17421708 -0.40256046 16.17421708 -0.5625 13.0625 C-0.56378906 12.02222656 -0.56507812 10.98195313 -0.56640625 9.91015625 C-1.04432016 6.70253588 -1.74292775 5.29496075 -4 3 C-7.44298999 2.22532725 -8.45989767 2.38540079 -10.8125 5.0625 Z " fill="#D8B76C" transform="translate(100,91)"/>
<path d="M0 0 C0 2.31 0 4.62 0 7 C-0.99 7 -1.98 7 -3 7 C-3.66 5.68 -4.32 4.36 -5 3 C-8.41642759 2.74984127 -8.41642759 2.74984127 -12 3 C-14.13749925 6.20624887 -14.29574999 7.22458103 -14.3125 10.9375 C-14.32925781 11.79214844 -14.34601562 12.64679688 -14.36328125 13.52734375 C-13.92289573 16.5248065 -13.16648262 17.89220314 -11 20 C-9.68 20 -8.36 20 -7 20 C-6.67 18.02 -6.34 16.04 -6 14 C-7.32 14 -8.64 14 -10 14 C-10 12.68 -10 11.36 -10 10 C-5.38 10 -0.76 10 4 10 C4 11.32 4 12.64 4 14 C3.01 14 2.02 14 1 14 C1 16.97 1 19.94 1 23 C-4.94725288 24.48681322 -11.24318974 25.14867094 -17 22.75 C-21.05662256 19.20045526 -22.56705491 16.57655118 -23.0625 11.0234375 C-22.96059434 7.72424175 -21.83754513 5.6950662 -20 3 C-13.95956782 -2.58739976 -7.52410793 -3.64805233 0 0 Z " fill="#D8B66B" transform="translate(55,92)"/>
<path d="M0 0 C4.29 0 8.58 0 13 0 C13 0.99 13 1.98 13 3 C12.01 3 11.02 3 10 3 C10.33 8.28 10.66 13.56 11 19 C15.60532389 20.45314664 15.60532389 20.45314664 18 19 C18.31241455 16.28553021 18.51336592 13.66090639 18.625 10.9375 C18.66367188 10.17888672 18.70234375 9.42027344 18.7421875 8.63867188 C18.83673562 6.75952805 18.91946756 4.87979664 19 3 C18.01 3 17.02 3 16 3 C16 2.01 16 1.02 16 0 C19.3 0 22.6 0 26 0 C26 0.99 26 1.98 26 3 C25.01 3.495 25.01 3.495 24 4 C23.76891016 7.31860165 23.68231414 10.59666395 23.69726562 13.921875 C23.58128278 17.99249875 23.28342949 19.62487274 20.7421875 22.98828125 C17.91525509 25.06217041 16.86002501 25.62201874 13.4375 25.4375 C12.69371094 25.41558594 11.94992188 25.39367187 11.18359375 25.37109375 C7.94137991 24.8200914 5.80041725 24.03701857 3.7578125 21.390625 C2.6409351 17.8672798 2.79109346 14.40316172 2.875 10.75 C2.88402344 10.00492188 2.89304687 9.25984375 2.90234375 8.4921875 C2.92581642 6.66131941 2.96168475 4.83061762 3 3 C2.01 3 1.02 3 0 3 C0 2.01 0 1.02 0 0 Z " fill="#D9B76D" transform="translate(107,91)"/>
<path d="M0 0 C2.39652528 -0.08139142 4.79025436 -0.14067009 7.1875 -0.1875 C7.86103516 -0.21263672 8.53457031 -0.23777344 9.22851562 -0.26367188 C13.68257425 -0.32885322 16.51984752 0.15972546 20 3 C21.125 6.375 21.125 6.375 21 10 C18.34828743 13.81183681 16.74391019 14.84146176 12.1875 15.8125 C10.6096875 15.9053125 10.6096875 15.9053125 9 16 C9 17.98 9 19.96 9 22 C9.99 22 10.98 22 12 22 C12 22.99 12 23.98 12 25 C8.04 25 4.08 25 0 25 C0 24.01 0 23.02 0 22 C0.66 21.67 1.32 21.34 2 21 C2 15.72 2 10.44 2 5 C1.34 4.67 0.68 4.34 0 4 C0 2.68 0 1.36 0 0 Z M9 4 C9 6.64 9 9.28 9 12 C10.32 11.67 11.64 11.34 13 11 C13 9.02 13 7.04 13 5 C11.68 4.67 10.36 4.34 9 4 Z " fill="#D9B86E" transform="translate(134,91)"/>
<path d="M0 0 C3 2 3 2 4 5 C4.53694064 10.11413951 4.58634539 13.90548861 2.125 18.5 C-1.66620828 22.96024503 -1.66620828 22.96024503 -5.4765625 23.4140625 C-6.85886294 23.4938106 -8.24175649 23.56374936 -9.625 23.625 C-10.33140625 23.66367187 -11.0378125 23.70234375 -11.765625 23.7421875 C-13.50998524 23.83647724 -15.25495691 23.91932891 -17 24 C-15.75452186 20.26356558 -14.17097481 19.89372408 -10.84375 18.09375 C-5.92982265 15.17870835 -3.12545565 11.20736635 -1 6 C-0.29241674 2.7633037 -0.29241674 2.7633037 0 0 Z " fill="#DDBA6E" transform="translate(52,19)"/>
</svg>
