<?xml version="1.0" encoding="UTF-8"?>
<svg version="1.1" xmlns="http://www.w3.org/2000/svg" width="64" height="64">
<path d="M0 0 C21.12 0 42.24 0 64 0 C64 21.12 64 42.24 64 64 C42.88 64 21.76 64 0 64 C0 42.88 0 21.76 0 0 Z " fill="#000000" transform="translate(0,0)"/>
<path d="M0 0 C0 5.28 0 10.56 0 16 C-1.65 16.33 -3.3 16.66 -5 17 C-4.154375 17.680625 -3.30875 18.36125 -2.4375 19.0625 C0 22 0 22 0.0625 25.625 C-1.12665175 29.40230554 -1.62017833 30.13353132 -5 32 C-8.234375 32.29296875 -8.234375 32.29296875 -11.75 32.1875 C-13.8125 32.125625 -15.875 32.06375 -18 32 C-18 26.72 -18 21.44 -18 16 C-16.35 15.67 -14.7 15.34 -13 15 C-13.825 14.319375 -14.65 13.63875 -15.5 12.9375 C-18 10 -18 10 -18.5625 6.375 C-18 3 -18 3 -16.41796875 1.30078125 C-11.50328579 -1.34314351 -5.40945179 -0.15026255 0 0 Z " fill="#F7F7F7" transform="translate(31,16)"/>
<path d="M0 0 C4.29 0 8.58 0 13 0 C13 1.65 13 3.3 13 5 C15.97 5 18.94 5 22 5 C21.51327434 11.32743363 21.51327434 11.32743363 19.1875 14.375 C17 16 17 16 13 17 C13 21.95 13 26.9 13 32 C7 32 7 32 4.25 30.25 C1.38158626 27.38158626 0.12146578 25.4215415 -0.22705078 21.34277344 C-0.21657715 20.35825195 -0.20610352 19.37373047 -0.1953125 18.359375 C-0.18886719 17.28945313 -0.18242188 16.21953125 -0.17578125 15.1171875 C-0.15902344 14.00601562 -0.14226563 12.89484375 -0.125 11.75 C-0.11597656 10.62335937 -0.10695312 9.49671875 -0.09765625 8.3359375 C-0.07410763 5.55720078 -0.03823725 2.77857341 0 0 Z " fill="#F4F4F4" transform="translate(33,16)"/>
</svg>
